<svg width="270" height="270" viewBox="0 0 270 270" fill="none" xmlns="http://www.w3.org/2000/svg">
<g clip-path="url(#clip0_8_178)">
<rect x="7" y="7" width="256" height="256" rx="48" fill="#27272A"/>
<rect x="7" y="134" width="256" height="2" fill="#D9D9D9"/>
<rect x="7.5" y="134.5" width="255" height="1" stroke="#18181B" stroke-opacity="0.38"/>
<mask id="path-5-outside-1_8_178" maskUnits="userSpaceOnUse" x="1.81927" y="17" width="265" height="243" fill="black">
<rect fill="white" x="1.81927" y="17" width="265" height="243"/>
<path d="M127.186 158.276V140.842C127.186 139.609 125.039 137.804 125.039 139.037C125.039 139.267 123.946 144.704 122.618 151.109C121.369 157.513 119.651 169.586 118.792 177.971L117.928 187.309C117.589 190.98 115.456 194.245 112.232 196.032C109.058 197.818 106.978 201.064 106.682 204.694L105.984 213.265C105.281 221.144 104.656 228.792 104.656 230.22C104.422 235.795 103.954 230.312 102.079 203.082C99.6581 168.71 99.5803 167.926 98.2526 166.36C97.0031 164.978 96.8469 165.945 95.2849 186.726C94.8162 193.037 94.3478 198.29 94.1916 198.382C93.6448 198.751 91.5363 197.783 90.6773 196.724C90.2243 196.168 89.3406 196.309 89.082 196.977L89.0372 197.093C88.7248 197.967 87.6314 201.608 86.6162 205.155L86.5672 205.331C86.2271 206.553 84.4427 206.374 84.3515 205.109C84.0391 201.516 83.4142 187.554 82.8676 174.009C82.1646 156.039 81.6181 149.081 80.9151 148.252C80.4724 147.77 80.2223 147.497 80.0428 147.513C79.8107 147.532 79.6954 148.031 79.4315 149.174C78.5723 153.228 77.4008 163.088 77.4008 167.052C77.3227 171.475 76.7762 171.382 74.6674 166.682C73.8866 165.024 73.0276 163.549 72.7151 163.319C72.4808 163.134 71.2313 168.341 70.0598 174.837C68.4514 183.342 64.1476 199.971 61.9234 206.837C61.2404 208.945 60.2198 208.938 60.2198 206.722C60.2198 199.074 58.5797 150.51 58.1894 147.008C57.9551 144.935 57.3302 142.907 56.7836 142.493C55.7742 141.668 55.7684 141.709 52.3139 166.12L52.2539 166.544C51.7855 170.138 51.0825 172.995 50.8484 172.902C50.536 172.81 49.6767 171.567 48.8959 170.184C48.0369 168.756 47.1777 167.604 46.9436 167.604C46.6311 167.604 45.4597 171.521 44.2883 176.357C43.195 181.15 41.7111 185.804 41.0862 186.678C40.4616 187.6 39.9148 189.535 39.9148 191.056C39.9148 193.36 39.6805 193.775 38.7434 193.591C37.8844 193.406 37.5719 193.637 37.4938 194.374C37.4938 194.972 37.0254 197.554 36.4786 200.087C36.3379 200.779 35.3264 200.705 35.2883 200L34.9948 194.557C34.6823 188.983 34.2139 176.22 33.9796 166.221C33.589 149.312 32.8862 143.875 31.4024 144.842C30.4653 145.488 26.8729 167.235 24.686 185.804C24.5403 187.014 24.396 188.196 24.255 189.337C23.1921 197.937 21.6584 197.935 20.469 189.352C18.4384 173.686 18.3605 173.087 16.9547 173.409C16.2517 173.548 15.3146 172.764 14.1432 171.06C12.9853 169.295 11.8375 169.692 11.4953 171.775C11.1452 173.907 10.6918 176.943 10.2384 180.274C9.30131 186.632 8.28611 192.209 7.97366 192.715C7.5831 193.222 7.11469 190.595 6.80224 186.495C6.5129 182.869 5.82195 176.002 5.28722 170.689L5.16215 169.446C4.5375 164.01 3.99072 154.657 3.99072 148.667C3.99072 141.556 3.03369 132.535 3.3606 125.432L5.55271 77.8027C5.55271 74.3931 6.33357 77.0654 8.208 86.8335C9.30131 92.4546 10.2384 99.0895 10.2384 101.578V102.989C10.2384 104.937 11.2812 106.737 12.9718 107.706C14.4557 108.535 15.7833 109.18 16.0174 109.042C16.1736 108.95 17.1888 105.817 18.3605 102.084C20.2347 95.7721 20.3909 94.3899 20.3909 81.3504V69.8378C20.3909 68.7557 21.5674 68.0838 22.4994 68.6337C22.7132 68.7641 22.9019 68.8481 23.0711 68.9234L23.0712 68.9235C23.1614 68.9636 23.2461 69.0013 23.326 69.0422C24.5453 69.6657 24.6674 71.0362 26.6595 93.3913L26.6595 93.3914L26.661 93.4079C26.888 95.9561 27.1394 98.7769 27.4194 101.9C28.5909 115.124 29.2158 119.547 29.9966 120.008C30.0328 120.029 30.0677 120.051 30.1014 120.072C30.2223 120.148 30.328 120.215 30.4228 120.21C31.0897 120.175 31.222 116.607 32.2844 87.9666L32.2847 87.9593C32.3962 84.9508 32.5181 81.6658 32.6519 78.0792C32.9322 68.4908 34.153 68.4399 35.2904 77.9646C35.3988 78.8724 35.5088 79.8034 35.6197 80.7515L37.0814 93.0247C37.4494 96.1148 38.8624 98.9862 41.0862 101.163C44.5226 104.434 44.6007 104.619 44.6007 108.305C44.6007 110.747 44.991 112.451 45.6159 112.958C46.6311 113.741 46.8655 113.649 48.974 111.576C49.9121 110.607 51.5508 111.07 51.844 112.386L52.9569 117.382C53.9721 121.805 55.0654 126.044 55.3779 126.827C55.6903 127.61 56.7836 116.736 57.7988 101.716C58.814 87.1559 59.9073 72.8265 60.1417 69.9238C60.239 68.8237 61.7864 68.6727 62.0945 69.7332L62.4845 71.0756C63.656 75.2225 64.5152 80.1525 64.7493 84.8984L64.9263 89.0494C65.0121 91.062 65.9841 92.9334 67.5811 94.1611C69.2441 95.4396 70.2256 97.4127 70.2419 99.5102L70.2942 106.231C70.4504 113.926 70.6847 116.368 71.4656 116.875C72.4027 117.382 72.7151 117.059 73.8084 114.94C74.5115 113.557 75.058 111.484 75.1361 110.378C75.1361 109.18 76.0732 111.3 77.3227 115.769L78.2812 119.12C78.5404 120.026 79.8549 119.929 79.978 118.994C80.2905 116.69 81.2276 106.462 82.0868 96.1868C83.0239 85.9119 83.9609 76.19 84.2734 74.5314C84.8199 71.5825 84.898 71.6285 87.0849 80.8897L88.7231 87.6887C89.0803 89.171 90.4914 90.1505 92.0049 89.9667C93.3815 89.819 94.5821 90.8977 94.5821 92.2821V101.854C94.5821 111.576 94.8162 114.156 95.6754 114.893C96.7687 115.723 96.8469 115.723 97.2372 114.617C97.4715 113.972 98.5648 109.917 99.6581 105.54C101.454 98.1681 101.611 96.4172 101.611 80.2447C101.611 70.661 101.845 62.9663 102.079 63.1046C102.313 63.2428 104.032 70.7992 105.984 79.876C107.858 88.9529 109.577 96.4172 109.733 96.5094C109.889 96.6015 110.982 94.5741 112.232 91.9479C114.184 87.755 114.497 87.3864 115.043 88.5843C115.59 89.8284 125.039 133.877 125.039 135.213C125.039 136.483 127.186 134.746 127.186 133.476V113.323C127.186 113.16 127.233 113 127.322 112.864C127.361 112.803 127.4 112.743 127.44 112.682C130.863 107.469 132.784 101.413 132.993 95.1802L133.453 81.4426C133.837 70.962 134.274 56.4401 134.59 45.8785C134.614 45.0828 134.637 44.3096 134.659 43.5623L134.661 43.4997C134.704 42.0672 134.744 40.7305 134.781 39.5139C135.173 24.2169 135.484 20.6691 136.421 19.7476C137.389 18.8209 138.67 19.5584 139.39 20.688C139.941 21.5514 140.612 22.6721 141.264 23.8483C142.852 26.7194 143.685 29.9466 143.685 33.2277V49.0976C143.685 66.5141 143.841 70.2003 144.855 71.26C146.106 72.7344 148.291 73.4255 148.761 72.55C148.917 72.2737 150.167 61.3076 151.494 48.2683C152.822 35.2289 154.148 24.4473 154.307 24.3551C154.462 24.263 154.618 24.4933 154.618 24.908C154.618 25.3688 155.711 31.4047 157.039 38.3621L158.1 44.1198C158.934 48.6467 161.157 52.8019 164.459 56.009C168.909 60.3862 169.457 61.2156 169.457 63.335C169.457 65.5466 171.408 69.0023 172.579 69.0023C173.518 69.0023 174.844 66.9289 175.078 65.0858C175.314 63.4733 175.625 63.934 177.735 68.5416C180.076 73.5638 180.234 74.2549 180.234 82.4563C180.312 89.2295 180.546 91.3489 181.482 92.3625C181.913 92.8359 182.701 92.5498 182.727 91.9105L182.733 91.7635C182.733 89.4996 183.961 73.9164 184.752 65.0825C185.114 61.0473 186.217 60.8938 187.417 64.7633C188.354 67.9885 189.449 70.9835 189.683 71.4904C190.386 72.5961 193.197 59.6029 192.73 57.3452C192.182 54.5807 193.275 55.9629 196.71 62.4135C198.813 66.377 199.913 70.7954 199.913 75.2822V83.4699C199.913 93.8369 200.227 98.8132 200.85 99.6425C201.867 100.933 202.882 101.117 203.507 100.103C204.366 98.8592 204.989 99.366 207.254 102.868C209.05 105.678 209.675 106.231 210.534 105.817C211.238 105.448 211.627 104.25 211.627 102.269C211.627 98.3984 212.644 98.9513 214.362 103.789C215.143 105.817 216.002 107.752 216.314 108.12C216.625 108.443 217.095 105.863 217.406 102.361C217.556 100.669 217.758 98.2842 217.971 95.7581L218.14 93.772C218.321 91.6275 218.501 89.4836 218.657 87.6629C219.124 83.1014 219.983 73.2412 220.609 65.7769C221.125 60.3009 221.64 55.5192 221.94 53.3058C222.058 52.4328 222.56 52.2714 222.56 53.1524C222.56 53.8896 223.967 61.1234 225.685 69.1866C228.731 83.3779 228.809 84.3914 228.809 97.7534C228.887 108.858 229.043 111.806 229.979 112.451C230.997 113.281 231.075 113.281 231.856 112.359C232.323 111.852 232.715 110.562 232.715 109.503C232.715 108.481 232.715 108.012 233.096 107.84C233.423 107.695 234.022 107.763 235.133 107.89L235.133 107.89L235.136 107.89C237.243 108.12 237.555 107.982 238.65 106.554C239.275 105.678 239.742 103.605 239.742 101.9C239.742 99.1817 239.898 98.9053 241.149 99.1817C241.852 99.366 243.412 99.7346 244.662 99.965C245.833 100.195 246.772 100.748 246.772 101.163C246.772 101.624 247.161 105.172 247.631 109.088C248.412 115.815 249.349 118.764 250.675 118.764C251.456 118.764 253.019 112.958 253.097 109.917C253.119 109.216 254.046 108.983 254.398 109.59L255.44 111.392C257.313 114.571 257.705 116.045 257.705 119.455C257.705 124.016 258.406 125.307 260.36 124.339C260.986 124.016 261.608 123.095 261.767 122.312C262 120.929 262.078 120.975 263.485 123.371C264.577 125.305 265.338 127.552 265.167 129.766L264.22 142.053C264.047 144.302 262.737 147.199 260.749 146.133C259.345 145.395 259.268 145.395 259.268 146.455C259.268 147.054 258.406 153.919 257.314 161.614C256.221 169.354 255.362 176.082 255.362 176.543C255.362 177.159 254.816 176.971 254.574 176.404C253.241 173.28 249.113 162.395 249.113 161.798C249.113 161.614 248.957 161.568 248.802 161.66C248.646 161.752 247.162 168.985 245.599 177.74C243.959 186.495 242.475 193.959 242.241 194.328C242.008 194.697 241.538 190.134 241.227 184.19C240.29 167.235 239.664 162.213 238.572 161.338C237.713 160.6 237.477 160.646 236.306 161.983C235.603 162.766 234.978 164.286 234.978 165.392C234.9 166.912 234.433 166.175 233.104 162.167C231.805 158.51 230.756 158.649 230.54 162.524C229.871 174.496 228.809 201.415 228.809 208.288V209.773C228.809 212.894 227.574 215.889 225.373 218.102L223.395 220.118C222.764 220.762 221.671 220.455 221.468 219.576C221.234 218.517 220.686 204.511 220.219 188.568C219.36 161.015 219.046 157.467 217.095 157.467C216.08 157.467 214.752 162.582 214.752 166.314C214.752 168.295 214.518 169.907 214.204 169.907C213.815 169.907 212.878 169.263 212.019 168.526C211.16 167.788 210.223 167.144 209.987 167.144C209.128 167.144 206.943 174.653 206.943 177.648C206.943 179.813 206.629 180.597 205.77 180.828C205.067 180.966 203.507 182.303 202.256 183.73C200.783 185.468 199.894 187.625 199.714 189.896L198.665 203.174C197.728 215.338 197.102 220.222 196.321 221.144C195.618 221.927 195.229 223.816 195.229 226.12C195.229 228.147 195.07 229.805 194.759 229.805C194.525 229.805 192.26 228.977 189.683 227.962C186.895 226.82 185.074 224.106 185.074 221.094V212.619C184.996 201.654 184.84 199.028 183.904 198.29C182.975 197.544 182.259 198.636 182.009 199.801C181.534 202.015 180.728 206.074 179.92 210.546C178.672 217.088 177.499 222.433 177.265 222.433C176.954 222.433 176.173 221.236 175.392 219.762L175.387 219.753C173.893 216.967 173.173 215.624 172.609 215.647C171.297 215.698 169.286 216.555 168.111 217.14C165.461 218.461 161.442 227.056 156.466 252.643C155.14 259.465 153.714 259.461 153.165 252.533C152.384 242.669 151.494 228.995 151.494 220.683C151.416 198.935 151.26 194.88 150.323 194.144C149.698 193.637 148.995 193.36 148.761 193.498C148.527 193.637 147.277 195.572 146.028 197.783C144.493 200.47 143.685 203.511 143.685 206.606V213.265C144.466 222.344 139.185 232 137 242C135.43 249.185 133.453 256 133.453 248C133.219 237.586 133.922 202.023 133.453 188.568L132.91 171.56C132.758 166.797 130.803 162.271 127.44 158.896C127.277 158.73 127.186 158.508 127.186 158.276Z"/>
</mask>
<path d="M127.186 158.276V140.842C127.186 139.609 125.039 137.804 125.039 139.037C125.039 139.267 123.946 144.704 122.618 151.109C121.369 157.513 119.651 169.586 118.792 177.971L117.928 187.309C117.589 190.98 115.456 194.245 112.232 196.032C109.058 197.818 106.978 201.064 106.682 204.694L105.984 213.265C105.281 221.144 104.656 228.792 104.656 230.22C104.422 235.795 103.954 230.312 102.079 203.082C99.6581 168.71 99.5803 167.926 98.2526 166.36C97.0031 164.978 96.8469 165.945 95.2849 186.726C94.8162 193.037 94.3478 198.29 94.1916 198.382C93.6448 198.751 91.5363 197.783 90.6773 196.724C90.2243 196.168 89.3406 196.309 89.082 196.977L89.0372 197.093C88.7248 197.967 87.6314 201.608 86.6162 205.155L86.5672 205.331C86.2271 206.553 84.4427 206.374 84.3515 205.109C84.0391 201.516 83.4142 187.554 82.8676 174.009C82.1646 156.039 81.6181 149.081 80.9151 148.252C80.4724 147.77 80.2223 147.497 80.0428 147.513C79.8107 147.532 79.6954 148.031 79.4315 149.174C78.5723 153.228 77.4008 163.088 77.4008 167.052C77.3227 171.475 76.7762 171.382 74.6674 166.682C73.8866 165.024 73.0276 163.549 72.7151 163.319C72.4808 163.134 71.2313 168.341 70.0598 174.837C68.4514 183.342 64.1476 199.971 61.9234 206.837C61.2404 208.945 60.2198 208.938 60.2198 206.722C60.2198 199.074 58.5797 150.51 58.1894 147.008C57.9551 144.935 57.3302 142.907 56.7836 142.493C55.7742 141.668 55.7684 141.709 52.3139 166.12L52.2539 166.544C51.7855 170.138 51.0825 172.995 50.8484 172.902C50.536 172.81 49.6767 171.567 48.8959 170.184C48.0369 168.756 47.1777 167.604 46.9436 167.604C46.6311 167.604 45.4597 171.521 44.2883 176.357C43.195 181.15 41.7111 185.804 41.0862 186.678C40.4616 187.6 39.9148 189.535 39.9148 191.056C39.9148 193.36 39.6805 193.775 38.7434 193.591C37.8844 193.406 37.5719 193.637 37.4938 194.374C37.4938 194.972 37.0254 197.554 36.4786 200.087C36.3379 200.779 35.3264 200.705 35.2883 200L34.9948 194.557C34.6823 188.983 34.2139 176.22 33.9796 166.221C33.589 149.312 32.8862 143.875 31.4024 144.842C30.4653 145.488 26.8729 167.235 24.686 185.804C24.5403 187.014 24.396 188.196 24.255 189.337C23.1921 197.937 21.6584 197.935 20.469 189.352C18.4384 173.686 18.3605 173.087 16.9547 173.409C16.2517 173.548 15.3146 172.764 14.1432 171.06C12.9853 169.295 11.8375 169.692 11.4953 171.775C11.1452 173.907 10.6918 176.943 10.2384 180.274C9.30131 186.632 8.28611 192.209 7.97366 192.715C7.5831 193.222 7.11469 190.595 6.80224 186.495C6.5129 182.869 5.82195 176.002 5.28722 170.689L5.16215 169.446C4.5375 164.01 3.99072 154.657 3.99072 148.667C3.99072 141.556 3.03369 132.535 3.3606 125.432L5.55271 77.8027C5.55271 74.3931 6.33357 77.0654 8.208 86.8335C9.30131 92.4546 10.2384 99.0895 10.2384 101.578V102.989C10.2384 104.937 11.2812 106.737 12.9718 107.706C14.4557 108.535 15.7833 109.18 16.0174 109.042C16.1736 108.95 17.1888 105.817 18.3605 102.084C20.2347 95.7721 20.3909 94.3899 20.3909 81.3504V69.8378C20.3909 68.7557 21.5674 68.0838 22.4994 68.6337C22.7132 68.7641 22.9019 68.8481 23.0711 68.9234L23.0712 68.9235C23.1614 68.9636 23.2461 69.0013 23.326 69.0422C24.5453 69.6657 24.6674 71.0362 26.6595 93.3913L26.6595 93.3914L26.661 93.4079C26.888 95.9561 27.1394 98.7769 27.4194 101.9C28.5909 115.124 29.2158 119.547 29.9966 120.008C30.0328 120.029 30.0677 120.051 30.1014 120.072C30.2223 120.148 30.328 120.215 30.4228 120.21C31.0897 120.175 31.222 116.607 32.2844 87.9666L32.2847 87.9593C32.3962 84.9508 32.5181 81.6658 32.6519 78.0792C32.9322 68.4908 34.153 68.4399 35.2904 77.9646C35.3988 78.8724 35.5088 79.8034 35.6197 80.7515L37.0814 93.0247C37.4494 96.1148 38.8624 98.9862 41.0862 101.163C44.5226 104.434 44.6007 104.619 44.6007 108.305C44.6007 110.747 44.991 112.451 45.6159 112.958C46.6311 113.741 46.8655 113.649 48.974 111.576C49.9121 110.607 51.5508 111.07 51.844 112.386L52.9569 117.382C53.9721 121.805 55.0654 126.044 55.3779 126.827C55.6903 127.61 56.7836 116.736 57.7988 101.716C58.814 87.1559 59.9073 72.8265 60.1417 69.9238C60.239 68.8237 61.7864 68.6727 62.0945 69.7332L62.4845 71.0756C63.656 75.2225 64.5152 80.1525 64.7493 84.8984L64.9263 89.0494C65.0121 91.062 65.9841 92.9334 67.5811 94.1611C69.2441 95.4396 70.2256 97.4127 70.2419 99.5102L70.2942 106.231C70.4504 113.926 70.6847 116.368 71.4656 116.875C72.4027 117.382 72.7151 117.059 73.8084 114.94C74.5115 113.557 75.058 111.484 75.1361 110.378C75.1361 109.18 76.0732 111.3 77.3227 115.769L78.2812 119.12C78.5404 120.026 79.8549 119.929 79.978 118.994C80.2905 116.69 81.2276 106.462 82.0868 96.1868C83.0239 85.9119 83.9609 76.19 84.2734 74.5314C84.8199 71.5825 84.898 71.6285 87.0849 80.8897L88.7231 87.6887C89.0803 89.171 90.4914 90.1505 92.0049 89.9667C93.3815 89.819 94.5821 90.8977 94.5821 92.2821V101.854C94.5821 111.576 94.8162 114.156 95.6754 114.893C96.7687 115.723 96.8469 115.723 97.2372 114.617C97.4715 113.972 98.5648 109.917 99.6581 105.54C101.454 98.1681 101.611 96.4172 101.611 80.2447C101.611 70.661 101.845 62.9663 102.079 63.1046C102.313 63.2428 104.032 70.7992 105.984 79.876C107.858 88.9529 109.577 96.4172 109.733 96.5094C109.889 96.6015 110.982 94.5741 112.232 91.9479C114.184 87.755 114.497 87.3864 115.043 88.5843C115.59 89.8284 125.039 133.877 125.039 135.213C125.039 136.483 127.186 134.746 127.186 133.476V113.323C127.186 113.16 127.233 113 127.322 112.864C127.361 112.803 127.4 112.743 127.44 112.682C130.863 107.469 132.784 101.413 132.993 95.1802L133.453 81.4426C133.837 70.962 134.274 56.4401 134.59 45.8785C134.614 45.0828 134.637 44.3096 134.659 43.5623L134.661 43.4997C134.704 42.0672 134.744 40.7305 134.781 39.5139C135.173 24.2169 135.484 20.6691 136.421 19.7476C137.389 18.8209 138.67 19.5584 139.39 20.688C139.941 21.5514 140.612 22.6721 141.264 23.8483C142.852 26.7194 143.685 29.9466 143.685 33.2277V49.0976C143.685 66.5141 143.841 70.2003 144.855 71.26C146.106 72.7344 148.291 73.4255 148.761 72.55C148.917 72.2737 150.167 61.3076 151.494 48.2683C152.822 35.2289 154.148 24.4473 154.307 24.3551C154.462 24.263 154.618 24.4933 154.618 24.908C154.618 25.3688 155.711 31.4047 157.039 38.3621L158.1 44.1198C158.934 48.6467 161.157 52.8019 164.459 56.009C168.909 60.3862 169.457 61.2156 169.457 63.335C169.457 65.5466 171.408 69.0023 172.579 69.0023C173.518 69.0023 174.844 66.9289 175.078 65.0858C175.314 63.4733 175.625 63.934 177.735 68.5416C180.076 73.5638 180.234 74.2549 180.234 82.4563C180.312 89.2295 180.546 91.3489 181.482 92.3625C181.913 92.8359 182.701 92.5498 182.727 91.9105L182.733 91.7635C182.733 89.4996 183.961 73.9164 184.752 65.0825C185.114 61.0473 186.217 60.8938 187.417 64.7633C188.354 67.9885 189.449 70.9835 189.683 71.4904C190.386 72.5961 193.197 59.6029 192.73 57.3452C192.182 54.5807 193.275 55.9629 196.71 62.4135C198.813 66.377 199.913 70.7954 199.913 75.2822V83.4699C199.913 93.8369 200.227 98.8132 200.85 99.6425C201.867 100.933 202.882 101.117 203.507 100.103C204.366 98.8592 204.989 99.366 207.254 102.868C209.05 105.678 209.675 106.231 210.534 105.817C211.238 105.448 211.627 104.25 211.627 102.269C211.627 98.3984 212.644 98.9513 214.362 103.789C215.143 105.817 216.002 107.752 216.314 108.12C216.625 108.443 217.095 105.863 217.406 102.361C217.556 100.669 217.758 98.2842 217.971 95.7581L218.14 93.772C218.321 91.6275 218.501 89.4836 218.657 87.6629C219.124 83.1014 219.983 73.2412 220.609 65.7769C221.125 60.3009 221.64 55.5192 221.94 53.3058C222.058 52.4328 222.56 52.2714 222.56 53.1524C222.56 53.8896 223.967 61.1234 225.685 69.1866C228.731 83.3779 228.809 84.3914 228.809 97.7534C228.887 108.858 229.043 111.806 229.979 112.451C230.997 113.281 231.075 113.281 231.856 112.359C232.323 111.852 232.715 110.562 232.715 109.503C232.715 108.481 232.715 108.012 233.096 107.84C233.423 107.695 234.022 107.763 235.133 107.89L235.133 107.89L235.136 107.89C237.243 108.12 237.555 107.982 238.65 106.554C239.275 105.678 239.742 103.605 239.742 101.9C239.742 99.1817 239.898 98.9053 241.149 99.1817C241.852 99.366 243.412 99.7346 244.662 99.965C245.833 100.195 246.772 100.748 246.772 101.163C246.772 101.624 247.161 105.172 247.631 109.088C248.412 115.815 249.349 118.764 250.675 118.764C251.456 118.764 253.019 112.958 253.097 109.917C253.119 109.216 254.046 108.983 254.398 109.59L255.44 111.392C257.313 114.571 257.705 116.045 257.705 119.455C257.705 124.016 258.406 125.307 260.36 124.339C260.986 124.016 261.608 123.095 261.767 122.312C262 120.929 262.078 120.975 263.485 123.371C264.577 125.305 265.338 127.552 265.167 129.766L264.22 142.053C264.047 144.302 262.737 147.199 260.749 146.133C259.345 145.395 259.268 145.395 259.268 146.455C259.268 147.054 258.406 153.919 257.314 161.614C256.221 169.354 255.362 176.082 255.362 176.543C255.362 177.159 254.816 176.971 254.574 176.404C253.241 173.28 249.113 162.395 249.113 161.798C249.113 161.614 248.957 161.568 248.802 161.66C248.646 161.752 247.162 168.985 245.599 177.74C243.959 186.495 242.475 193.959 242.241 194.328C242.008 194.697 241.538 190.134 241.227 184.19C240.29 167.235 239.664 162.213 238.572 161.338C237.713 160.6 237.477 160.646 236.306 161.983C235.603 162.766 234.978 164.286 234.978 165.392C234.9 166.912 234.433 166.175 233.104 162.167C231.805 158.51 230.756 158.649 230.54 162.524C229.871 174.496 228.809 201.415 228.809 208.288V209.773C228.809 212.894 227.574 215.889 225.373 218.102L223.395 220.118C222.764 220.762 221.671 220.455 221.468 219.576C221.234 218.517 220.686 204.511 220.219 188.568C219.36 161.015 219.046 157.467 217.095 157.467C216.08 157.467 214.752 162.582 214.752 166.314C214.752 168.295 214.518 169.907 214.204 169.907C213.815 169.907 212.878 169.263 212.019 168.526C211.16 167.788 210.223 167.144 209.987 167.144C209.128 167.144 206.943 174.653 206.943 177.648C206.943 179.813 206.629 180.597 205.77 180.828C205.067 180.966 203.507 182.303 202.256 183.73C200.783 185.468 199.894 187.625 199.714 189.896L198.665 203.174C197.728 215.338 197.102 220.222 196.321 221.144C195.618 221.927 195.229 223.816 195.229 226.12C195.229 228.147 195.07 229.805 194.759 229.805C194.525 229.805 192.26 228.977 189.683 227.962C186.895 226.82 185.074 224.106 185.074 221.094V212.619C184.996 201.654 184.84 199.028 183.904 198.29C182.975 197.544 182.259 198.636 182.009 199.801C181.534 202.015 180.728 206.074 179.92 210.546C178.672 217.088 177.499 222.433 177.265 222.433C176.954 222.433 176.173 221.236 175.392 219.762L175.387 219.753C173.893 216.967 173.173 215.624 172.609 215.647C171.297 215.698 169.286 216.555 168.111 217.14C165.461 218.461 161.442 227.056 156.466 252.643C155.14 259.465 153.714 259.461 153.165 252.533C152.384 242.669 151.494 228.995 151.494 220.683C151.416 198.935 151.26 194.88 150.323 194.144C149.698 193.637 148.995 193.36 148.761 193.498C148.527 193.637 147.277 195.572 146.028 197.783C144.493 200.47 143.685 203.511 143.685 206.606V213.265C144.466 222.344 139.185 232 137 242C135.43 249.185 133.453 256 133.453 248C133.219 237.586 133.922 202.023 133.453 188.568L132.91 171.56C132.758 166.797 130.803 162.271 127.44 158.896C127.277 158.73 127.186 158.508 127.186 158.276Z" fill="#71717A"/>
<path d="M127.186 158.276V140.842C127.186 139.609 125.039 137.804 125.039 139.037C125.039 139.267 123.946 144.704 122.618 151.109C121.369 157.513 119.651 169.586 118.792 177.971L117.928 187.309C117.589 190.98 115.456 194.245 112.232 196.032C109.058 197.818 106.978 201.064 106.682 204.694L105.984 213.265C105.281 221.144 104.656 228.792 104.656 230.22C104.422 235.795 103.954 230.312 102.079 203.082C99.6581 168.71 99.5803 167.926 98.2526 166.36C97.0031 164.978 96.8469 165.945 95.2849 186.726C94.8162 193.037 94.3478 198.29 94.1916 198.382C93.6448 198.751 91.5363 197.783 90.6773 196.724C90.2243 196.168 89.3406 196.309 89.082 196.977L89.0372 197.093C88.7248 197.967 87.6314 201.608 86.6162 205.155L86.5672 205.331C86.2271 206.553 84.4427 206.374 84.3515 205.109C84.0391 201.516 83.4142 187.554 82.8676 174.009C82.1646 156.039 81.6181 149.081 80.9151 148.252C80.4724 147.77 80.2223 147.497 80.0428 147.513C79.8107 147.532 79.6954 148.031 79.4315 149.174C78.5723 153.228 77.4008 163.088 77.4008 167.052C77.3227 171.475 76.7762 171.382 74.6674 166.682C73.8866 165.024 73.0276 163.549 72.7151 163.319C72.4808 163.134 71.2313 168.341 70.0598 174.837C68.4514 183.342 64.1476 199.971 61.9234 206.837C61.2404 208.945 60.2198 208.938 60.2198 206.722C60.2198 199.074 58.5797 150.51 58.1894 147.008C57.9551 144.935 57.3302 142.907 56.7836 142.493C55.7742 141.668 55.7684 141.709 52.3139 166.12L52.2539 166.544C51.7855 170.138 51.0825 172.995 50.8484 172.902C50.536 172.81 49.6767 171.567 48.8959 170.184C48.0369 168.756 47.1777 167.604 46.9436 167.604C46.6311 167.604 45.4597 171.521 44.2883 176.357C43.195 181.15 41.7111 185.804 41.0862 186.678C40.4616 187.6 39.9148 189.535 39.9148 191.056C39.9148 193.36 39.6805 193.775 38.7434 193.591C37.8844 193.406 37.5719 193.637 37.4938 194.374C37.4938 194.972 37.0254 197.554 36.4786 200.087C36.3379 200.779 35.3264 200.705 35.2883 200L34.9948 194.557C34.6823 188.983 34.2139 176.22 33.9796 166.221C33.589 149.312 32.8862 143.875 31.4024 144.842C30.4653 145.488 26.8729 167.235 24.686 185.804C24.5403 187.014 24.396 188.196 24.255 189.337C23.1921 197.937 21.6584 197.935 20.469 189.352C18.4384 173.686 18.3605 173.087 16.9547 173.409C16.2517 173.548 15.3146 172.764 14.1432 171.06C12.9853 169.295 11.8375 169.692 11.4953 171.775C11.1452 173.907 10.6918 176.943 10.2384 180.274C9.30131 186.632 8.28611 192.209 7.97366 192.715C7.5831 193.222 7.11469 190.595 6.80224 186.495C6.5129 182.869 5.82195 176.002 5.28722 170.689L5.16215 169.446C4.5375 164.01 3.99072 154.657 3.99072 148.667C3.99072 141.556 3.03369 132.535 3.3606 125.432L5.55271 77.8027C5.55271 74.3931 6.33357 77.0654 8.208 86.8335C9.30131 92.4546 10.2384 99.0895 10.2384 101.578V102.989C10.2384 104.937 11.2812 106.737 12.9718 107.706C14.4557 108.535 15.7833 109.18 16.0174 109.042C16.1736 108.95 17.1888 105.817 18.3605 102.084C20.2347 95.7721 20.3909 94.3899 20.3909 81.3504V69.8378C20.3909 68.7557 21.5674 68.0838 22.4994 68.6337C22.7132 68.7641 22.9019 68.8481 23.0711 68.9234L23.0712 68.9235C23.1614 68.9636 23.2461 69.0013 23.326 69.0422C24.5453 69.6657 24.6674 71.0362 26.6595 93.3913L26.6595 93.3914L26.661 93.4079C26.888 95.9561 27.1394 98.7769 27.4194 101.9C28.5909 115.124 29.2158 119.547 29.9966 120.008C30.0328 120.029 30.0677 120.051 30.1014 120.072C30.2223 120.148 30.328 120.215 30.4228 120.21C31.0897 120.175 31.222 116.607 32.2844 87.9666L32.2847 87.9593C32.3962 84.9508 32.5181 81.6658 32.6519 78.0792C32.9322 68.4908 34.153 68.4399 35.2904 77.9646C35.3988 78.8724 35.5088 79.8034 35.6197 80.7515L37.0814 93.0247C37.4494 96.1148 38.8624 98.9862 41.0862 101.163C44.5226 104.434 44.6007 104.619 44.6007 108.305C44.6007 110.747 44.991 112.451 45.6159 112.958C46.6311 113.741 46.8655 113.649 48.974 111.576C49.9121 110.607 51.5508 111.07 51.844 112.386L52.9569 117.382C53.9721 121.805 55.0654 126.044 55.3779 126.827C55.6903 127.61 56.7836 116.736 57.7988 101.716C58.814 87.1559 59.9073 72.8265 60.1417 69.9238C60.239 68.8237 61.7864 68.6727 62.0945 69.7332L62.4845 71.0756C63.656 75.2225 64.5152 80.1525 64.7493 84.8984L64.9263 89.0494C65.0121 91.062 65.9841 92.9334 67.5811 94.1611C69.2441 95.4396 70.2256 97.4127 70.2419 99.5102L70.2942 106.231C70.4504 113.926 70.6847 116.368 71.4656 116.875C72.4027 117.382 72.7151 117.059 73.8084 114.94C74.5115 113.557 75.058 111.484 75.1361 110.378C75.1361 109.18 76.0732 111.3 77.3227 115.769L78.2812 119.12C78.5404 120.026 79.8549 119.929 79.978 118.994C80.2905 116.69 81.2276 106.462 82.0868 96.1868C83.0239 85.9119 83.9609 76.19 84.2734 74.5314C84.8199 71.5825 84.898 71.6285 87.0849 80.8897L88.7231 87.6887C89.0803 89.171 90.4914 90.1505 92.0049 89.9667C93.3815 89.819 94.5821 90.8977 94.5821 92.2821V101.854C94.5821 111.576 94.8162 114.156 95.6754 114.893C96.7687 115.723 96.8469 115.723 97.2372 114.617C97.4715 113.972 98.5648 109.917 99.6581 105.54C101.454 98.1681 101.611 96.4172 101.611 80.2447C101.611 70.661 101.845 62.9663 102.079 63.1046C102.313 63.2428 104.032 70.7992 105.984 79.876C107.858 88.9529 109.577 96.4172 109.733 96.5094C109.889 96.6015 110.982 94.5741 112.232 91.9479C114.184 87.755 114.497 87.3864 115.043 88.5843C115.59 89.8284 125.039 133.877 125.039 135.213C125.039 136.483 127.186 134.746 127.186 133.476V113.323C127.186 113.16 127.233 113 127.322 112.864C127.361 112.803 127.4 112.743 127.44 112.682C130.863 107.469 132.784 101.413 132.993 95.1802L133.453 81.4426C133.837 70.962 134.274 56.4401 134.59 45.8785C134.614 45.0828 134.637 44.3096 134.659 43.5623L134.661 43.4997C134.704 42.0672 134.744 40.7305 134.781 39.5139C135.173 24.2169 135.484 20.6691 136.421 19.7476C137.389 18.8209 138.67 19.5584 139.39 20.688C139.941 21.5514 140.612 22.6721 141.264 23.8483C142.852 26.7194 143.685 29.9466 143.685 33.2277V49.0976C143.685 66.5141 143.841 70.2003 144.855 71.26C146.106 72.7344 148.291 73.4255 148.761 72.55C148.917 72.2737 150.167 61.3076 151.494 48.2683C152.822 35.2289 154.148 24.4473 154.307 24.3551C154.462 24.263 154.618 24.4933 154.618 24.908C154.618 25.3688 155.711 31.4047 157.039 38.3621L158.1 44.1198C158.934 48.6467 161.157 52.8019 164.459 56.009C168.909 60.3862 169.457 61.2156 169.457 63.335C169.457 65.5466 171.408 69.0023 172.579 69.0023C173.518 69.0023 174.844 66.9289 175.078 65.0858C175.314 63.4733 175.625 63.934 177.735 68.5416C180.076 73.5638 180.234 74.2549 180.234 82.4563C180.312 89.2295 180.546 91.3489 181.482 92.3625C181.913 92.8359 182.701 92.5498 182.727 91.9105L182.733 91.7635C182.733 89.4996 183.961 73.9164 184.752 65.0825C185.114 61.0473 186.217 60.8938 187.417 64.7633C188.354 67.9885 189.449 70.9835 189.683 71.4904C190.386 72.5961 193.197 59.6029 192.73 57.3452C192.182 54.5807 193.275 55.9629 196.71 62.4135C198.813 66.377 199.913 70.7954 199.913 75.2822V83.4699C199.913 93.8369 200.227 98.8132 200.85 99.6425C201.867 100.933 202.882 101.117 203.507 100.103C204.366 98.8592 204.989 99.366 207.254 102.868C209.05 105.678 209.675 106.231 210.534 105.817C211.238 105.448 211.627 104.25 211.627 102.269C211.627 98.3984 212.644 98.9513 214.362 103.789C215.143 105.817 216.002 107.752 216.314 108.12C216.625 108.443 217.095 105.863 217.406 102.361C217.556 100.669 217.758 98.2842 217.971 95.7581L218.14 93.772C218.321 91.6275 218.501 89.4836 218.657 87.6629C219.124 83.1014 219.983 73.2412 220.609 65.7769C221.125 60.3009 221.64 55.5192 221.94 53.3058C222.058 52.4328 222.56 52.2714 222.56 53.1524C222.56 53.8896 223.967 61.1234 225.685 69.1866C228.731 83.3779 228.809 84.3914 228.809 97.7534C228.887 108.858 229.043 111.806 229.979 112.451C230.997 113.281 231.075 113.281 231.856 112.359C232.323 111.852 232.715 110.562 232.715 109.503C232.715 108.481 232.715 108.012 233.096 107.84C233.423 107.695 234.022 107.763 235.133 107.89L235.133 107.89L235.136 107.89C237.243 108.12 237.555 107.982 238.65 106.554C239.275 105.678 239.742 103.605 239.742 101.9C239.742 99.1817 239.898 98.9053 241.149 99.1817C241.852 99.366 243.412 99.7346 244.662 99.965C245.833 100.195 246.772 100.748 246.772 101.163C246.772 101.624 247.161 105.172 247.631 109.088C248.412 115.815 249.349 118.764 250.675 118.764C251.456 118.764 253.019 112.958 253.097 109.917C253.119 109.216 254.046 108.983 254.398 109.59L255.44 111.392C257.313 114.571 257.705 116.045 257.705 119.455C257.705 124.016 258.406 125.307 260.36 124.339C260.986 124.016 261.608 123.095 261.767 122.312C262 120.929 262.078 120.975 263.485 123.371C264.577 125.305 265.338 127.552 265.167 129.766L264.22 142.053C264.047 144.302 262.737 147.199 260.749 146.133C259.345 145.395 259.268 145.395 259.268 146.455C259.268 147.054 258.406 153.919 257.314 161.614C256.221 169.354 255.362 176.082 255.362 176.543C255.362 177.159 254.816 176.971 254.574 176.404C253.241 173.28 249.113 162.395 249.113 161.798C249.113 161.614 248.957 161.568 248.802 161.66C248.646 161.752 247.162 168.985 245.599 177.74C243.959 186.495 242.475 193.959 242.241 194.328C242.008 194.697 241.538 190.134 241.227 184.19C240.29 167.235 239.664 162.213 238.572 161.338C237.713 160.6 237.477 160.646 236.306 161.983C235.603 162.766 234.978 164.286 234.978 165.392C234.9 166.912 234.433 166.175 233.104 162.167C231.805 158.51 230.756 158.649 230.54 162.524C229.871 174.496 228.809 201.415 228.809 208.288V209.773C228.809 212.894 227.574 215.889 225.373 218.102L223.395 220.118C222.764 220.762 221.671 220.455 221.468 219.576C221.234 218.517 220.686 204.511 220.219 188.568C219.36 161.015 219.046 157.467 217.095 157.467C216.08 157.467 214.752 162.582 214.752 166.314C214.752 168.295 214.518 169.907 214.204 169.907C213.815 169.907 212.878 169.263 212.019 168.526C211.16 167.788 210.223 167.144 209.987 167.144C209.128 167.144 206.943 174.653 206.943 177.648C206.943 179.813 206.629 180.597 205.77 180.828C205.067 180.966 203.507 182.303 202.256 183.73C200.783 185.468 199.894 187.625 199.714 189.896L198.665 203.174C197.728 215.338 197.102 220.222 196.321 221.144C195.618 221.927 195.229 223.816 195.229 226.12C195.229 228.147 195.07 229.805 194.759 229.805C194.525 229.805 192.26 228.977 189.683 227.962C186.895 226.82 185.074 224.106 185.074 221.094V212.619C184.996 201.654 184.84 199.028 183.904 198.29C182.975 197.544 182.259 198.636 182.009 199.801C181.534 202.015 180.728 206.074 179.92 210.546C178.672 217.088 177.499 222.433 177.265 222.433C176.954 222.433 176.173 221.236 175.392 219.762L175.387 219.753C173.893 216.967 173.173 215.624 172.609 215.647C171.297 215.698 169.286 216.555 168.111 217.14C165.461 218.461 161.442 227.056 156.466 252.643C155.14 259.465 153.714 259.461 153.165 252.533C152.384 242.669 151.494 228.995 151.494 220.683C151.416 198.935 151.26 194.88 150.323 194.144C149.698 193.637 148.995 193.36 148.761 193.498C148.527 193.637 147.277 195.572 146.028 197.783C144.493 200.47 143.685 203.511 143.685 206.606V213.265C144.466 222.344 139.185 232 137 242C135.43 249.185 133.453 256 133.453 248C133.219 237.586 133.922 202.023 133.453 188.568L132.91 171.56C132.758 166.797 130.803 162.271 127.44 158.896C127.277 158.73 127.186 158.508 127.186 158.276Z" stroke="#A1A1AA" stroke-width="2.69474" mask="url(#path-5-outside-1_8_178)"/>
<path d="M126.967 144.99V138.848C126.967 137.91 124.819 136.386 124.819 137.323C124.819 137.416 123.724 139.605 122.396 142.183C121.145 144.761 119.426 149.621 118.566 152.997L118.107 154.995C117.527 157.518 115.158 159.564 112.001 160.268C108.9 160.97 106.598 163.007 106.094 165.497L105.748 167.205C105.045 170.377 104.419 173.456 104.419 174.031C104.185 176.275 103.716 174.068 101.84 163.106C99.4173 149.269 99.3394 148.953 98.0107 148.323C96.7602 147.766 96.6039 148.156 95.0406 156.521C94.5716 159.062 94.1028 161.177 93.9465 161.214C93.3993 161.362 91.2891 160.973 90.4294 160.546L90.2931 160.479C89.796 160.234 89.1412 160.328 88.7881 160.695C88.4754 161.047 87.3812 162.512 86.3652 163.94L86.1757 164.214C85.6657 164.951 84.2473 164.751 84.0987 163.922C83.786 162.475 83.1606 156.855 82.6136 151.402C81.9101 144.168 81.3631 141.367 80.6596 141.033C80.2165 140.839 79.9662 140.729 79.7866 140.735C79.5543 140.743 79.439 140.944 79.1748 141.404C78.3149 143.036 77.1425 147.006 77.1425 148.601C77.0644 150.382 76.5174 150.344 74.407 148.452C73.6255 147.785 72.7659 147.191 72.4532 147.098C72.2186 147.024 70.9681 149.12 69.7958 151.735C67.7638 156.057 61.433 165.591 60.417 165.851C60.1043 165.907 59.948 165.332 59.948 164.571C59.948 161.492 58.3066 141.942 57.916 140.532C57.6815 139.697 57.0561 138.881 56.5091 138.714C55.4989 138.382 55.4931 138.399 52.0359 148.226L51.9758 148.397C51.507 149.844 50.8035 150.994 50.5692 150.956C50.2565 150.919 49.3966 150.419 48.6152 149.862C47.7555 149.287 46.8956 148.824 46.6613 148.824C46.3486 148.824 45.1763 150.4 44.0039 152.347C42.9098 154.277 41.4247 156.15 40.7994 156.502C40.1742 156.873 39.627 157.652 39.627 158.264C39.627 159.192 39.3925 159.359 38.4547 159.285C37.4915 159.202 37.1263 159.978 36.796 160.69C36.6247 161.059 36.413 161.481 36.1881 161.9C35.9478 162.376 35.0525 162.28 34.9844 161.772L34.7031 159.674C34.3904 157.43 33.9216 152.292 33.6871 148.267C33.2962 141.46 32.5929 139.271 31.1079 139.66C30.1701 139.92 26.5749 148.675 24.3863 156.15C24.2422 156.631 24.0994 157.102 23.9598 157.557C22.8739 161.092 21.3754 161.089 20.1659 157.578C18.1337 151.272 18.0558 151.031 16.6489 151.16C15.9453 151.216 15.0075 150.901 13.8352 150.215C12.5804 149.445 11.4526 149.81 10.9861 151.001C10.6711 151.805 10.2992 152.825 9.92728 153.924C8.98945 156.484 7.97345 158.729 7.66076 158.933C7.2699 159.137 6.80111 158.079 6.48842 156.428C6.19885 154.969 5.50736 152.204 4.97221 150.066L4.84703 149.565C4.2219 147.377 3.67469 143.611 3.67469 141.2C3.67469 138.348 2.74389 134.47 3.06885 131.63L5.2379 112.672C5.2379 111.3 6.01938 112.375 7.89528 116.308C8.98945 118.571 9.92728 121.242 9.92728 122.243C9.92728 123.332 10.8452 124.291 12.1827 124.6L12.6628 124.71C14.1479 125.044 15.4766 125.304 15.7108 125.248C15.8672 125.211 16.8832 123.95 18.0558 122.447C19.9314 119.906 20.0878 119.35 20.0878 114.1V110.202C20.0878 109.345 21.1478 108.732 22.1979 108.981C22.4119 109.034 22.6008 109.067 22.7702 109.098C22.8604 109.114 22.9452 109.129 23.0252 109.145C24.2454 109.396 24.3677 109.948 26.3613 118.948L26.3617 118.949C26.5892 119.976 26.8411 121.114 27.1218 122.373C28.2942 127.697 28.9196 129.477 29.701 129.663C29.7372 129.671 29.7722 129.68 29.8059 129.689C29.9269 129.719 30.0327 129.746 30.1276 129.744C30.7949 129.73 30.9274 128.294 31.9906 116.764C32.1024 115.552 32.2244 114.229 32.3584 112.783C32.6406 108.901 33.8359 108.829 34.9632 112.617C35.0832 113.02 35.2054 113.436 35.3285 113.859L36.4929 117.792C37.0426 119.649 38.6205 121.218 40.7994 122.076C44.2385 123.393 44.3166 123.467 44.3166 124.951C44.3166 125.934 44.7072 126.621 45.3326 126.825C46.3486 127.14 46.5831 127.103 48.6933 126.268C49.8723 125.779 51.3355 126.179 51.8655 127.136L52.6794 128.605C53.6954 130.386 54.7896 132.093 55.1023 132.408C55.4149 132.723 56.5091 128.346 57.5251 122.299C58.5411 116.438 59.6353 110.669 59.8698 109.5C60.0268 108.786 61.2447 108.621 61.7005 109.252L62.2145 109.964C63.3868 111.633 64.2467 113.618 64.481 115.529L64.5733 116.399C64.7083 117.672 65.7562 118.776 67.2773 119.246C68.8963 119.747 69.9693 120.96 69.9955 122.319L70.0303 124.117C70.1866 127.214 70.4212 128.197 71.2026 128.401C72.1405 128.605 72.4532 128.476 73.5473 127.622V127.622C74.7488 126.672 75.524 125.908 76.457 127.123C76.6484 127.372 76.8519 127.651 77.0644 127.956L78.1035 129.418C78.489 129.96 79.5249 129.855 79.7217 129.255C80.0344 128.327 80.9723 124.209 81.8322 120.073C82.77 115.937 83.7078 112.023 84.0205 111.355C84.5675 110.168 84.6456 110.187 86.8342 113.915L87.9727 115.816C88.6533 116.952 90.1548 117.647 91.7581 117.569C93.159 117.509 94.3373 118.379 94.3373 119.475V122.355C94.3373 126.268 94.5716 127.307 95.4315 127.604C96.5257 127.938 96.6039 127.938 96.9945 127.492C97.229 127.233 98.3232 125.601 99.4173 123.838C101.215 120.871 101.371 120.166 101.371 113.655C101.371 109.797 101.606 106.7 101.84 106.755C102.075 106.811 103.794 109.853 105.748 113.507C107.624 117.161 109.344 120.166 109.5 120.203C109.656 120.24 110.75 119.424 112.001 118.367C113.955 116.679 114.267 116.53 114.814 117.013C115.362 117.513 124.819 135.246 124.819 135.784C124.819 136.731 126.967 135.242 126.967 134.295V127.006C126.967 126.921 127.017 126.84 127.103 126.787C127.142 126.762 127.181 126.738 127.221 126.713C130.554 124.672 132.616 121.618 132.891 118.317L133.238 114.138C133.623 109.918 134.06 104.072 134.377 99.8205C134.401 99.5002 134.424 99.1889 134.446 98.888L134.449 98.8556C134.491 98.2817 134.531 97.746 134.568 97.2583C134.96 91.1002 135.272 89.6719 136.209 89.301C136.835 89.0598 137.617 88.9485 138.007 89.0227C138.321 89.1155 139.726 89.9873 141.056 90.9518C142.601 92.0756 143.479 93.6505 143.479 95.2995V101.116C143.479 108.128 143.635 109.612 144.65 110.038C145.902 110.632 148.089 110.91 148.559 110.558C148.715 110.446 149.966 106.032 151.294 100.783C152.623 95.5333 153.95 91.1929 154.109 91.1558C154.265 91.1187 154.421 91.2115 154.421 91.3784C154.421 91.5639 155.514 93.9937 156.844 96.7946L157.276 97.7375C158.503 100.418 161.009 102.625 164.269 103.899C168.723 105.661 169.271 105.995 169.271 106.848C169.271 107.738 171.224 109.129 172.395 109.129C173.335 109.129 174.663 108.295 174.896 107.553C175.133 106.904 175.444 107.089 177.556 108.944C179.898 110.966 180.057 111.244 180.057 114.546C180.135 117.272 180.368 118.125 181.306 118.534L181.63 118.677C182.026 118.852 182.521 118.647 182.558 118.292C182.558 117.407 183.717 111.463 184.51 107.863C184.915 106.019 186.009 105.82 187.246 107.423C188.601 109.3 190.612 109.489 191.636 107.488C192.291 106.206 192.778 104.858 192.562 104.437C192.014 103.324 193.107 103.88 196.546 106.477C198.595 108.03 199.751 110.165 199.751 112.395V114.954C199.751 119.127 200.065 121.13 200.688 121.464C201.706 121.984 202.722 122.058 203.348 121.65C204.207 121.149 204.831 121.353 207.098 122.763C208.895 123.894 209.521 124.117 210.381 123.95C211.085 123.801 211.474 123.319 211.474 122.521C211.474 120.963 212.492 121.186 214.212 123.134C214.993 123.95 215.853 124.729 216.165 124.877C216.476 125.007 216.946 123.968 217.258 122.559C217.408 121.877 217.61 120.917 217.824 119.9L217.992 119.101C218.173 118.238 218.354 117.375 218.51 116.642C218.977 114.805 219.837 110.836 220.463 107.831C220.966 105.684 221.469 103.802 221.772 102.882C221.906 102.475 222.416 102.328 222.416 102.749C222.416 103.045 223.824 105.958 225.543 109.204C228.592 114.917 228.67 115.325 228.67 120.704C228.748 125.174 228.904 126.361 229.841 126.621C230.859 126.955 230.937 126.955 231.719 126.584C232.186 126.38 232.578 125.86 232.578 125.434C232.578 125.022 232.578 124.833 232.961 124.764C233.287 124.706 233.887 124.733 234.999 124.784L235.002 124.784C237.111 124.877 237.422 124.821 238.518 124.246C239.144 123.894 239.612 123.059 239.612 122.373C239.612 121.279 239.767 121.167 241.019 121.279C241.723 121.353 243.284 121.501 244.536 121.594C245.707 121.687 246.647 121.909 246.647 122.076C246.647 122.262 247.037 123.69 247.507 125.267C248.288 127.975 249.226 129.162 250.553 129.162C251.335 129.162 252.898 126.825 252.976 125.601C253.008 125.202 253.614 125.007 253.996 125.273L255.322 126.194C257.197 127.474 257.589 128.067 257.589 129.44C257.589 131.276 258.29 131.796 260.246 131.406C260.872 131.276 261.495 130.905 261.653 130.59C261.887 130.034 261.965 130.052 263.373 131.017C264.46 131.791 265.179 132.952 264.961 134.088L264.326 137.4C264.021 138.996 262.627 140.609 260.635 140.18C259.23 139.883 259.152 139.883 259.152 140.31C259.152 140.551 258.29 143.314 257.197 146.412C256.103 149.528 255.244 152.236 255.244 152.422C255.244 152.747 254.697 152.595 254.432 152.345C253.075 151.06 248.99 146.725 248.99 146.486C248.99 146.412 248.834 146.394 248.678 146.431C248.522 146.468 247.037 149.38 245.473 152.904C243.832 156.428 242.346 159.433 242.113 159.582C241.879 159.73 241.409 157.893 241.097 155.501C240.16 148.675 239.534 146.653 238.44 146.301C237.581 146.004 237.344 146.023 236.173 146.56C235.469 146.876 234.843 147.488 234.843 147.933C234.765 148.545 234.298 148.248 232.968 146.635C231.953 145.485 231.015 144.502 230.859 144.446C230.467 144.353 228.67 161.603 228.67 165.202C228.67 166.774 227.547 168.215 225.759 168.939L225.231 169.152L222.808 170.146C222.257 170.372 221.577 170.189 221.323 169.746C221.089 169.319 220.541 163.681 220.073 157.263C219.214 146.171 218.899 144.743 216.946 144.743C215.931 144.743 214.601 146.802 214.601 148.304C214.601 149.102 214.367 149.751 214.053 149.751C213.664 149.751 212.726 149.491 211.866 149.195C211.007 148.898 210.069 148.638 209.833 148.638C208.973 148.638 206.786 151.661 206.786 152.867C206.786 153.738 206.472 154.054 205.613 154.147C204.909 154.203 203.348 154.741 202.096 155.315C200.659 155.997 199.681 157.141 199.426 158.439L198.502 163.143C197.564 168.04 196.938 170.006 196.156 170.377C195.453 170.692 195.063 171.453 195.063 172.38C195.063 173.196 194.905 173.864 194.593 173.864C194.359 173.864 192.092 173.53 189.513 173.122C186.824 172.679 184.9 170.826 184.9 168.681V166.945C184.823 162.531 184.667 161.474 183.729 161.177C182.76 160.863 182.002 161.45 181.61 162.21C181.128 163.146 180.436 164.567 179.743 166.111C178.493 168.744 177.319 170.896 177.086 170.896C176.774 170.896 175.992 170.414 175.211 169.821L175.206 169.817C173.711 168.696 172.99 168.155 172.425 168.164C171.9 168.172 171.508 168.658 170.756 169.598C169.975 170.563 169.349 172.009 169.349 172.788C169.271 173.79 168.957 174.253 168.175 174.365C165.754 174.698 164.58 175.682 164.58 177.37C164.58 178.34 163.673 179.165 162.444 179.311L158.329 179.799C154.888 180.207 151.92 180.542 151.686 180.542C151.449 180.542 151.294 175.886 151.294 170.192C151.216 161.436 151.06 159.804 150.122 159.508C149.496 159.304 148.793 159.192 148.559 159.248C148.325 159.304 147.073 160.083 145.824 160.973L145.66 161.088C144.271 162.065 143.479 163.457 143.479 164.916V177.304C143.479 178.604 141.328 179.124 140.387 178.051C140.022 177.634 139.35 177.429 138.917 177.804C137.381 179.132 136.212 183 135.881 183C135.569 183 134.88 178.946 134.568 174.736C134.334 170.544 133.708 162.679 133.238 157.263L132.823 152.028C132.597 149.178 130.47 146.629 127.221 145.318C127.065 145.254 126.967 145.128 126.967 144.99Z" fill="#A1A1AA"/>
<rect x="116" y="132" width="20" height="10" fill="#A1A1AA"/>
<rect x="-44" y="-173" width="328" height="614" fill="url(#paint0_radial_8_178)"/>
<g filter="url(#filter0_d_8_178)">
<path d="M99.7273 81.3636H124.273V402.909C124.273 409.687 118.778 415.182 112 415.182V415.182C105.222 415.182 99.7273 409.687 99.7273 402.909V81.3636Z" fill="#0EA5E9"/>
<path d="M102.942 84.5779H121.058V402.909C121.058 407.912 117.003 411.968 112 411.968C106.997 411.968 102.942 407.912 102.942 402.909V84.5779Z" stroke="#18181B" stroke-opacity="0.2" stroke-width="6.42857"/>
<path d="M155.678 43.8826L117.107 94.3222C114.534 97.6869 109.466 97.6869 106.893 94.3222L68.322 43.8826C67.4646 42.7614 67 41.3891 67 39.9776V17.4286C67 13.8782 69.8782 11 73.4286 11H150.571C154.122 11 157 13.8782 157 17.4286V39.9776C157 41.3891 156.535 42.7614 155.678 43.8826Z" fill="#0EA5E9"/>
<path d="M153.125 41.9301L114.553 92.3696C113.267 94.052 110.733 94.052 109.447 92.3696L70.8753 41.9301C70.4466 41.3695 70.2143 40.6833 70.2143 39.9776V17.4286C70.2143 15.6534 71.6534 14.2143 73.4286 14.2143H150.571C152.347 14.2143 153.786 15.6534 153.786 17.4286V39.9776C153.786 40.6833 153.553 41.3695 153.125 41.9301Z" stroke="#18181B" stroke-opacity="0.2" stroke-width="6.42857"/>
</g>
</g>
<rect x="3.63158" y="3.63158" width="262.737" height="262.737" rx="51.3684" stroke="#52525B" stroke-width="6.73684"/>
<defs>
<filter id="filter0_d_8_178" x="15.5714" y="-14.7143" width="192.857" height="507.039" filterUnits="userSpaceOnUse" color-interpolation-filters="sRGB">
<feFlood flood-opacity="0" result="BackgroundImageFix"/>
<feColorMatrix in="SourceAlpha" type="matrix" values="0 0 0 0 0 0 0 0 0 0 0 0 0 0 0 0 0 0 127 0" result="hardAlpha"/>
<feOffset dy="25.7143"/>
<feGaussianBlur stdDeviation="25.7143"/>
<feComposite in2="hardAlpha" operator="out"/>
<feColorMatrix type="matrix" values="0 0 0 0 0 0 0 0 0 0 0 0 0 0 0 0 0 0 0.25 0"/>
<feBlend mode="normal" in2="BackgroundImageFix" result="effect1_dropShadow_8_178"/>
<feBlend mode="normal" in="SourceGraphic" in2="effect1_dropShadow_8_178" result="shape"/>
</filter>
<radialGradient id="paint0_radial_8_178" cx="0" cy="0" r="1" gradientUnits="userSpaceOnUse" gradientTransform="translate(120 134) rotate(90) scale(307 164)">
<stop stop-opacity="0"/>
<stop offset="1" stop-opacity="0.87"/>
</radialGradient>
<clipPath id="clip0_8_178">
<rect x="7" y="7" width="256" height="256" rx="48" fill="white"/>
</clipPath>
</defs>
</svg>
