<svg width="256" height="256" viewBox="0 0 256 256" fill="none" xmlns="http://www.w3.org/2000/svg">
<g clip-path="url(#clip0_11_16)">
<rect x="9" y="9" width="238" height="238" rx="44.625" fill="#27272A"/>
<rect x="9" y="127.07" width="238" height="1.85938" fill="#D9D9D9"/>
<rect x="9.46484" y="127.535" width="237.07" height="0.929688" stroke="#18181B" stroke-opacity="0.38" stroke-width="0.929688"/>
<mask id="path-5-outside-1_11_16" maskUnits="userSpaceOnUse" x="4.11322" y="19.1562" width="247" height="225" fill="black">
<rect fill="white" x="4.11322" y="19.1562" width="247" height="225"/>
<path d="M120.735 149.64V133.432C120.735 132.285 118.74 130.607 118.74 131.753C118.74 131.967 117.723 137.022 116.489 142.976C115.327 148.93 113.73 160.154 112.931 167.95L112.129 176.631C111.813 180.044 109.83 183.08 106.832 184.74C103.882 186.401 101.948 189.419 101.673 192.794L101.024 200.762C100.371 208.087 99.7898 215.197 99.7898 216.525C99.5722 221.708 99.1365 216.611 97.3941 191.295C95.1431 159.34 95.0707 158.611 93.8364 157.155C92.6747 155.87 92.5295 156.769 91.0773 176.089C90.6416 181.956 90.2061 186.84 90.0609 186.925C89.5526 187.268 87.5923 186.369 86.7937 185.384C86.3726 184.868 85.551 184.998 85.3106 185.619L85.269 185.727C84.9785 186.54 83.962 189.924 83.0182 193.222L82.9727 193.386C82.6565 194.522 80.9975 194.355 80.9127 193.18C80.6222 189.839 80.0413 176.859 79.5332 164.266C78.8796 147.56 78.3715 141.091 77.7179 140.32C77.3064 139.872 77.0739 139.619 76.907 139.633C76.6912 139.651 76.584 140.115 76.3386 141.177C75.5398 144.947 74.4508 154.113 74.4508 157.798C74.3781 161.91 73.87 161.823 71.9096 157.455C71.1836 155.913 70.385 154.542 70.0945 154.328C69.8767 154.156 68.715 158.997 67.6259 165.036C66.1306 172.943 62.1294 188.402 60.0616 194.786C59.4266 196.746 58.4778 196.739 58.4778 194.679C58.4778 187.569 56.953 142.419 56.5901 139.164C56.3723 137.236 55.7913 135.351 55.2832 134.966C54.3448 134.199 54.3394 134.237 51.1278 156.932L51.072 157.326C50.6365 160.668 49.9829 163.324 49.7653 163.237C49.4748 163.151 48.676 161.996 47.9501 160.71C47.1515 159.382 46.3527 158.312 46.135 158.312C45.8446 158.312 44.7555 161.953 43.6664 166.45C42.65 170.905 41.2705 175.232 40.6895 176.045C40.1088 176.902 39.6005 178.701 39.6005 180.114C39.6005 182.257 39.3826 182.642 38.5114 182.471C37.7128 182.299 37.4223 182.514 37.3497 183.199C37.3497 183.755 36.9142 186.155 36.4059 188.511C36.2751 189.154 35.3346 189.085 35.2993 188.43L35.0264 183.37C34.7359 178.187 34.3004 166.321 34.0825 157.026C33.7194 141.306 33.0661 136.251 31.6866 137.15C30.8154 137.75 27.4756 157.969 25.4425 175.232C25.307 176.356 25.1729 177.456 25.0417 178.517C24.0536 186.512 22.6277 186.509 21.522 178.53C19.6341 163.966 19.5617 163.409 18.2548 163.708C17.6012 163.838 16.73 163.109 15.641 161.524C14.5644 159.883 13.4974 160.253 13.1793 162.189C12.8538 164.171 12.4322 166.994 12.0107 170.091C11.1395 176.002 10.1957 181.186 9.90519 181.657C9.54209 182.128 9.10661 179.686 8.81613 175.874C8.54714 172.503 7.90477 166.119 7.40764 161.18L7.29136 160.024C6.71064 154.97 6.2023 146.275 6.2023 140.706C6.2023 134.095 5.31256 125.709 5.61648 119.105L7.65446 74.8243C7.65446 71.6545 8.38042 74.139 10.123 83.2202C11.1395 88.4461 12.0107 94.6145 12.0107 96.9276V98.2394C12.0107 100.051 12.9802 101.724 14.5519 102.625C15.9314 103.396 17.1657 103.996 17.3834 103.867C17.5286 103.781 18.4724 100.869 19.5617 97.3988C21.3041 91.5303 21.4493 90.2453 21.4493 78.1227V67.4195C21.4493 66.4135 22.5432 65.7888 23.4096 66.3001C23.6083 66.4213 23.7838 66.4994 23.9411 66.5695L23.9412 66.5695C24.0251 66.6068 24.1038 66.6419 24.1781 66.6799C25.3116 67.2595 25.4252 68.5337 27.2772 89.3169L27.2772 89.317C27.4886 91.6901 27.7228 94.3176 27.9837 97.2274C29.0727 109.521 29.6537 113.634 30.3797 114.062C30.4133 114.082 30.4457 114.102 30.4771 114.122C30.5894 114.193 30.6877 114.254 30.7759 114.25C31.3958 114.217 31.5189 110.901 32.5066 84.2737L32.5072 84.2573C32.6108 81.4629 32.724 78.412 32.8483 75.0814C33.1088 66.1673 34.2438 66.1199 35.3012 74.9749C35.402 75.8189 35.5043 76.6844 35.6073 77.5658L36.9663 88.9761C37.3084 91.8489 38.6221 94.5184 40.6895 96.5422C43.8843 99.5835 43.9569 99.7548 43.9569 103.182C43.9569 105.452 44.3198 107.037 44.9007 107.508C45.8446 108.236 46.0624 108.151 48.0227 106.223C48.8948 105.322 50.4183 105.752 50.6909 106.976L51.7256 111.62C52.6694 115.733 53.6858 119.673 53.9763 120.402C54.2668 121.13 55.2832 111.021 56.227 97.0562C57.1708 83.52 58.1873 70.1981 58.4051 67.4995C58.4956 66.4767 59.9342 66.3363 60.2207 67.3223L60.5833 68.5703C61.6723 72.4256 62.4711 77.009 62.6888 81.4211L62.8533 85.2803C62.9331 87.1514 63.8368 88.8912 65.3215 90.0326C66.8676 91.2212 67.78 93.0555 67.7952 95.0056L67.8438 101.254C67.989 108.408 68.2069 110.678 68.9328 111.149C69.804 111.62 70.0945 111.32 71.111 109.35C71.7645 108.065 72.2726 106.137 72.3453 105.109C72.3453 103.996 73.2165 105.966 74.3781 110.121L75.2692 113.236C75.5102 114.079 76.7322 113.988 76.8467 113.12C77.1372 110.978 78.0084 101.468 78.8072 91.9158C79.6784 82.3634 80.5496 73.3251 80.8401 71.7831C81.3482 69.0416 81.4208 69.0843 83.4539 77.6944L84.9769 84.0153C85.309 85.3933 86.6209 86.3039 88.028 86.1331C89.3078 85.9958 90.424 86.9986 90.424 88.2857V97.1847C90.424 106.223 90.6416 108.622 91.4404 109.307C92.4569 110.078 92.5295 110.078 92.8924 109.05C93.1102 108.45 94.1266 104.681 95.1431 100.612C96.8131 93.7579 96.9583 92.13 96.9583 77.0947C96.9583 68.1848 97.1762 61.0312 97.3941 61.1597C97.6117 61.2883 99.2091 68.3134 101.024 76.7519C102.767 85.1906 104.364 92.13 104.509 92.2157C104.654 92.3014 105.671 90.4165 106.832 87.975C108.648 84.0769 108.938 83.7342 109.446 84.8479C109.955 86.0045 118.74 126.956 118.74 128.198C118.74 129.378 120.735 127.764 120.735 126.583V107.847C120.735 107.695 120.779 107.547 120.862 107.42C120.898 107.364 120.935 107.308 120.971 107.251C124.154 102.404 125.94 96.7749 126.134 90.98L126.561 78.2084C126.919 68.4646 127.325 54.9638 127.619 45.1449C127.641 44.4051 127.663 43.6863 127.683 42.9915L127.685 42.9515C127.724 41.6128 127.761 40.364 127.797 39.2278C128.161 25.0063 128.45 21.708 129.321 20.8513C130.221 19.9897 131.412 20.6754 132.082 21.7255C132.594 22.5283 133.217 23.5702 133.823 24.6636C135.3 27.3328 136.074 30.3332 136.074 33.3835V48.1377C136.074 64.3295 136.219 67.7565 137.162 68.7417C138.325 70.1124 140.357 70.755 140.793 69.9411C140.938 69.6841 142.101 59.4891 143.334 47.3666C144.569 35.2441 145.802 25.2205 145.949 25.1348C146.094 25.0492 146.239 25.2633 146.239 25.6489C146.239 26.0772 147.254 31.6887 148.49 38.157L149.476 43.5098C150.252 47.7185 152.317 51.5814 155.387 54.5631C159.525 58.6325 160.034 59.4035 160.034 61.374C160.034 63.4301 161.848 66.6427 162.936 66.6427C163.81 66.6427 165.043 64.7151 165.26 63.0016C165.479 61.5025 165.769 61.9308 167.73 66.2144C169.907 70.8835 170.054 71.526 170.054 79.1508C170.126 85.4477 170.343 87.4181 171.214 88.3604C171.614 88.8006 172.347 88.5346 172.371 87.9403L172.377 87.8036C172.377 85.6988 173.519 71.2113 174.254 62.9986C174.59 59.2471 175.616 59.1044 176.732 62.7019C177.603 65.7003 178.621 68.4846 178.838 68.9559C179.492 69.9839 182.105 57.9043 181.67 55.8053C181.161 53.2352 182.177 54.5202 185.371 60.5172C187.326 64.202 188.349 68.3098 188.349 72.4811V80.0931C188.349 89.7312 188.64 94.3576 189.22 95.1286C190.165 96.328 191.109 96.4992 191.69 95.5569C192.489 94.4004 193.068 94.8715 195.174 98.127C196.843 100.74 197.425 101.254 198.223 100.869C198.877 100.526 199.239 99.4121 199.239 97.5702C199.239 93.972 200.185 94.4859 201.782 98.9838C202.508 100.869 203.307 102.668 203.596 103.01C203.886 103.31 204.322 100.911 204.612 97.6559C204.751 96.0854 204.938 93.8738 205.136 91.53L205.138 91.5173L205.294 89.6708C205.462 87.6771 205.63 85.684 205.775 83.9913C206.209 79.7505 207.008 70.5836 207.589 63.6442C208.069 58.5532 208.549 54.1077 208.827 52.0499C208.937 51.2383 209.404 51.0882 209.404 51.9073C209.404 52.5926 210.711 59.3178 212.308 66.8141C215.141 80.0076 215.213 80.9499 215.213 93.3723C215.285 103.696 215.43 106.437 216.301 107.037C217.247 107.808 217.319 107.808 218.046 106.951C218.48 106.48 218.844 105.281 218.844 104.295C218.844 103.346 218.844 102.909 219.199 102.75C219.502 102.615 220.06 102.678 221.092 102.796L221.092 102.796L221.095 102.796C223.054 103.01 223.344 102.882 224.362 101.554C224.943 100.74 225.377 98.8124 225.377 97.2274C225.377 94.7002 225.522 94.4432 226.685 94.7002C227.339 94.8716 228.789 95.2142 229.952 95.4284C231.04 95.6426 231.913 96.1566 231.913 96.5422C231.913 96.9705 232.275 100.269 232.712 103.91C233.438 110.164 234.309 112.905 235.542 112.905C236.268 112.905 237.72 107.508 237.793 104.681C237.814 104.029 238.676 103.812 239.003 104.377L239.971 106.052C241.713 109.007 242.078 110.378 242.078 113.548C242.078 117.789 242.729 118.988 244.546 118.089C245.127 117.789 245.706 116.932 245.853 116.204C246.071 114.919 246.143 114.962 247.451 117.189C248.466 118.987 249.173 121.075 249.015 123.134L248.134 134.557C247.973 136.648 246.756 139.341 244.908 138.35C243.602 137.664 243.53 137.664 243.53 138.65C243.53 139.207 242.729 145.589 241.713 152.743C240.698 159.939 239.899 166.193 239.899 166.622C239.899 167.194 239.391 167.02 239.167 166.493C237.927 163.589 234.09 153.468 234.09 152.914C234.09 152.743 233.945 152.7 233.8 152.785C233.655 152.871 232.275 159.596 230.823 167.735C229.298 175.874 227.918 182.813 227.701 183.156C227.484 183.499 227.047 179.257 226.757 173.732C225.887 157.969 225.305 153.3 224.289 152.486C223.491 151.8 223.271 151.843 222.183 153.085C221.529 153.814 220.948 155.227 220.948 156.255C220.876 157.669 220.441 156.983 219.206 153.257C217.998 149.857 217.023 149.986 216.822 153.589C216.2 164.719 215.213 189.746 215.213 196.135V197.516C215.213 200.417 214.065 203.201 212.019 205.259L210.18 207.134C209.593 207.732 208.577 207.446 208.388 206.63C208.171 205.645 207.662 192.623 207.227 177.801C206.429 152.186 206.137 148.887 204.323 148.887C203.379 148.887 202.144 153.642 202.144 157.112C202.144 158.954 201.927 160.453 201.635 160.453C201.273 160.453 200.402 159.853 199.603 159.169C198.805 158.483 197.934 157.883 197.714 157.883C196.916 157.883 194.884 164.865 194.884 167.649C194.884 169.662 194.592 170.391 193.794 170.606C193.14 170.734 191.69 171.977 190.527 173.303C189.158 174.919 188.331 176.925 188.164 179.036L187.188 191.381C186.317 202.69 185.736 207.23 185.009 208.087C184.356 208.815 183.994 210.571 183.994 212.713C183.994 214.598 183.847 216.139 183.557 216.139C183.34 216.139 181.234 215.369 178.838 214.426C176.246 213.364 174.553 210.841 174.553 208.04V200.162C174.481 189.967 174.336 187.526 173.465 186.84C172.602 186.146 171.936 187.162 171.704 188.245C171.262 190.303 170.513 194.076 169.762 198.234C168.601 204.317 167.511 209.286 167.294 209.286C167.004 209.286 166.278 208.173 165.552 206.802L165.547 206.794C164.159 204.204 163.489 202.956 162.964 202.976C161.745 203.024 159.876 203.82 158.783 204.365C156.319 205.592 152.583 213.583 147.957 237.371C146.723 243.713 145.399 243.71 144.888 237.269C144.161 228.099 143.334 215.386 143.334 207.659C143.262 187.439 143.117 183.67 142.246 182.985C141.664 182.514 141.011 182.257 140.793 182.385C140.576 182.514 139.413 184.313 138.253 186.369C136.825 188.867 136.074 191.694 136.074 194.571V200.762C136.8 209.202 131.891 218.18 129.859 227.477C128.4 234.156 126.561 240.492 126.561 233.055C126.344 223.373 126.998 190.31 126.561 177.801L126.057 161.989C125.916 157.562 124.098 153.353 120.971 150.215C120.82 150.062 120.735 149.855 120.735 149.64Z"/>
</mask>
<path d="M120.735 149.64V133.432C120.735 132.285 118.74 130.607 118.74 131.753C118.74 131.967 117.723 137.022 116.489 142.976C115.327 148.93 113.73 160.154 112.931 167.95L112.129 176.631C111.813 180.044 109.83 183.08 106.832 184.74C103.882 186.401 101.948 189.419 101.673 192.794L101.024 200.762C100.371 208.087 99.7898 215.197 99.7898 216.525C99.5722 221.708 99.1365 216.611 97.3941 191.295C95.1431 159.34 95.0707 158.611 93.8364 157.155C92.6747 155.87 92.5295 156.769 91.0773 176.089C90.6416 181.956 90.2061 186.84 90.0609 186.925C89.5526 187.268 87.5923 186.369 86.7937 185.384C86.3726 184.868 85.551 184.998 85.3106 185.619L85.269 185.727C84.9785 186.54 83.962 189.924 83.0182 193.222L82.9727 193.386C82.6565 194.522 80.9975 194.355 80.9127 193.18C80.6222 189.839 80.0413 176.859 79.5332 164.266C78.8796 147.56 78.3715 141.091 77.7179 140.32C77.3064 139.872 77.0739 139.619 76.907 139.633C76.6912 139.651 76.584 140.115 76.3386 141.177C75.5398 144.947 74.4508 154.113 74.4508 157.798C74.3781 161.91 73.87 161.823 71.9096 157.455C71.1836 155.913 70.385 154.542 70.0945 154.328C69.8767 154.156 68.715 158.997 67.6259 165.036C66.1306 172.943 62.1294 188.402 60.0616 194.786C59.4266 196.746 58.4778 196.739 58.4778 194.679C58.4778 187.569 56.953 142.419 56.5901 139.164C56.3723 137.236 55.7913 135.351 55.2832 134.966C54.3448 134.199 54.3394 134.237 51.1278 156.932L51.072 157.326C50.6365 160.668 49.9829 163.324 49.7653 163.237C49.4748 163.151 48.676 161.996 47.9501 160.71C47.1515 159.382 46.3527 158.312 46.135 158.312C45.8446 158.312 44.7555 161.953 43.6664 166.45C42.65 170.905 41.2705 175.232 40.6895 176.045C40.1088 176.902 39.6005 178.701 39.6005 180.114C39.6005 182.257 39.3826 182.642 38.5114 182.471C37.7128 182.299 37.4223 182.514 37.3497 183.199C37.3497 183.755 36.9142 186.155 36.4059 188.511C36.2751 189.154 35.3346 189.085 35.2993 188.43L35.0264 183.37C34.7359 178.187 34.3004 166.321 34.0825 157.026C33.7194 141.306 33.0661 136.251 31.6866 137.15C30.8154 137.75 27.4756 157.969 25.4425 175.232C25.307 176.356 25.1729 177.456 25.0417 178.517C24.0536 186.512 22.6277 186.509 21.522 178.53C19.6341 163.966 19.5617 163.409 18.2548 163.708C17.6012 163.838 16.73 163.109 15.641 161.524C14.5644 159.883 13.4974 160.253 13.1793 162.189C12.8538 164.171 12.4322 166.994 12.0107 170.091C11.1395 176.002 10.1957 181.186 9.90519 181.657C9.54209 182.128 9.10661 179.686 8.81613 175.874C8.54714 172.503 7.90477 166.119 7.40764 161.18L7.29136 160.024C6.71064 154.97 6.2023 146.275 6.2023 140.706C6.2023 134.095 5.31256 125.709 5.61648 119.105L7.65446 74.8243C7.65446 71.6545 8.38042 74.139 10.123 83.2202C11.1395 88.4461 12.0107 94.6145 12.0107 96.9276V98.2394C12.0107 100.051 12.9802 101.724 14.5519 102.625C15.9314 103.396 17.1657 103.996 17.3834 103.867C17.5286 103.781 18.4724 100.869 19.5617 97.3988C21.3041 91.5303 21.4493 90.2453 21.4493 78.1227V67.4195C21.4493 66.4135 22.5432 65.7888 23.4096 66.3001C23.6083 66.4213 23.7838 66.4994 23.9411 66.5695L23.9412 66.5695C24.0251 66.6068 24.1038 66.6419 24.1781 66.6799C25.3116 67.2595 25.4252 68.5337 27.2772 89.3169L27.2772 89.317C27.4886 91.6901 27.7228 94.3176 27.9837 97.2274C29.0727 109.521 29.6537 113.634 30.3797 114.062C30.4133 114.082 30.4457 114.102 30.4771 114.122C30.5894 114.193 30.6877 114.254 30.7759 114.25C31.3958 114.217 31.5189 110.901 32.5066 84.2737L32.5072 84.2573C32.6108 81.4629 32.724 78.412 32.8483 75.0814C33.1088 66.1673 34.2438 66.1199 35.3012 74.9749C35.402 75.8189 35.5043 76.6844 35.6073 77.5658L36.9663 88.9761C37.3084 91.8489 38.6221 94.5184 40.6895 96.5422C43.8843 99.5835 43.9569 99.7548 43.9569 103.182C43.9569 105.452 44.3198 107.037 44.9007 107.508C45.8446 108.236 46.0624 108.151 48.0227 106.223C48.8948 105.322 50.4183 105.752 50.6909 106.976L51.7256 111.62C52.6694 115.733 53.6858 119.673 53.9763 120.402C54.2668 121.13 55.2832 111.021 56.227 97.0562C57.1708 83.52 58.1873 70.1981 58.4051 67.4995C58.4956 66.4767 59.9342 66.3363 60.2207 67.3223L60.5833 68.5703C61.6723 72.4256 62.4711 77.009 62.6888 81.4211L62.8533 85.2803C62.9331 87.1514 63.8368 88.8912 65.3215 90.0326C66.8676 91.2212 67.78 93.0555 67.7952 95.0056L67.8438 101.254C67.989 108.408 68.2069 110.678 68.9328 111.149C69.804 111.62 70.0945 111.32 71.111 109.35C71.7645 108.065 72.2726 106.137 72.3453 105.109C72.3453 103.996 73.2165 105.966 74.3781 110.121L75.2692 113.236C75.5102 114.079 76.7322 113.988 76.8467 113.12C77.1372 110.978 78.0084 101.468 78.8072 91.9158C79.6784 82.3634 80.5496 73.3251 80.8401 71.7831C81.3482 69.0416 81.4208 69.0843 83.4539 77.6944L84.9769 84.0153C85.309 85.3933 86.6209 86.3039 88.028 86.1331C89.3078 85.9958 90.424 86.9986 90.424 88.2857V97.1847C90.424 106.223 90.6416 108.622 91.4404 109.307C92.4569 110.078 92.5295 110.078 92.8924 109.05C93.1102 108.45 94.1266 104.681 95.1431 100.612C96.8131 93.7579 96.9583 92.13 96.9583 77.0947C96.9583 68.1848 97.1762 61.0312 97.3941 61.1597C97.6117 61.2883 99.2091 68.3134 101.024 76.7519C102.767 85.1906 104.364 92.13 104.509 92.2157C104.654 92.3014 105.671 90.4165 106.832 87.975C108.648 84.0769 108.938 83.7342 109.446 84.8479C109.955 86.0045 118.74 126.956 118.74 128.198C118.74 129.378 120.735 127.764 120.735 126.583V107.847C120.735 107.695 120.779 107.547 120.862 107.42C120.898 107.364 120.935 107.308 120.971 107.251C124.154 102.404 125.94 96.7749 126.134 90.98L126.561 78.2084C126.919 68.4646 127.325 54.9638 127.619 45.1449C127.641 44.4051 127.663 43.6863 127.683 42.9915L127.685 42.9515C127.724 41.6128 127.761 40.364 127.797 39.2278C128.161 25.0063 128.45 21.708 129.321 20.8513C130.221 19.9897 131.412 20.6754 132.082 21.7255C132.594 22.5283 133.217 23.5702 133.823 24.6636C135.3 27.3328 136.074 30.3332 136.074 33.3835V48.1377C136.074 64.3295 136.219 67.7565 137.162 68.7417C138.325 70.1124 140.357 70.755 140.793 69.9411C140.938 69.6841 142.101 59.4891 143.334 47.3666C144.569 35.2441 145.802 25.2205 145.949 25.1348C146.094 25.0492 146.239 25.2633 146.239 25.6489C146.239 26.0772 147.254 31.6887 148.49 38.157L149.476 43.5098C150.252 47.7185 152.317 51.5814 155.387 54.5631C159.525 58.6325 160.034 59.4035 160.034 61.374C160.034 63.4301 161.848 66.6427 162.936 66.6427C163.81 66.6427 165.043 64.7151 165.26 63.0016C165.479 61.5025 165.769 61.9308 167.73 66.2144C169.907 70.8835 170.054 71.526 170.054 79.1508C170.126 85.4477 170.343 87.4181 171.214 88.3604C171.614 88.8006 172.347 88.5346 172.371 87.9403L172.377 87.8036C172.377 85.6988 173.519 71.2113 174.254 62.9986C174.59 59.2471 175.616 59.1044 176.732 62.7019C177.603 65.7003 178.621 68.4846 178.838 68.9559C179.492 69.9839 182.105 57.9043 181.67 55.8053C181.161 53.2352 182.177 54.5202 185.371 60.5172C187.326 64.202 188.349 68.3098 188.349 72.4811V80.0931C188.349 89.7312 188.64 94.3576 189.22 95.1286C190.165 96.328 191.109 96.4992 191.69 95.5569C192.489 94.4004 193.068 94.8715 195.174 98.127C196.843 100.74 197.425 101.254 198.223 100.869C198.877 100.526 199.239 99.4121 199.239 97.5702C199.239 93.972 200.185 94.4859 201.782 98.9838C202.508 100.869 203.307 102.668 203.596 103.01C203.886 103.31 204.322 100.911 204.612 97.6559C204.751 96.0854 204.938 93.8738 205.136 91.53L205.138 91.5173L205.294 89.6708C205.462 87.6771 205.63 85.684 205.775 83.9913C206.209 79.7505 207.008 70.5836 207.589 63.6442C208.069 58.5532 208.549 54.1077 208.827 52.0499C208.937 51.2383 209.404 51.0882 209.404 51.9073C209.404 52.5926 210.711 59.3178 212.308 66.8141C215.141 80.0076 215.213 80.9499 215.213 93.3723C215.285 103.696 215.43 106.437 216.301 107.037C217.247 107.808 217.319 107.808 218.046 106.951C218.48 106.48 218.844 105.281 218.844 104.295C218.844 103.346 218.844 102.909 219.199 102.75C219.502 102.615 220.06 102.678 221.092 102.796L221.092 102.796L221.095 102.796C223.054 103.01 223.344 102.882 224.362 101.554C224.943 100.74 225.377 98.8124 225.377 97.2274C225.377 94.7002 225.522 94.4432 226.685 94.7002C227.339 94.8716 228.789 95.2142 229.952 95.4284C231.04 95.6426 231.913 96.1566 231.913 96.5422C231.913 96.9705 232.275 100.269 232.712 103.91C233.438 110.164 234.309 112.905 235.542 112.905C236.268 112.905 237.72 107.508 237.793 104.681C237.814 104.029 238.676 103.812 239.003 104.377L239.971 106.052C241.713 109.007 242.078 110.378 242.078 113.548C242.078 117.789 242.729 118.988 244.546 118.089C245.127 117.789 245.706 116.932 245.853 116.204C246.071 114.919 246.143 114.962 247.451 117.189C248.466 118.987 249.173 121.075 249.015 123.134L248.134 134.557C247.973 136.648 246.756 139.341 244.908 138.35C243.602 137.664 243.53 137.664 243.53 138.65C243.53 139.207 242.729 145.589 241.713 152.743C240.698 159.939 239.899 166.193 239.899 166.622C239.899 167.194 239.391 167.02 239.167 166.493C237.927 163.589 234.09 153.468 234.09 152.914C234.09 152.743 233.945 152.7 233.8 152.785C233.655 152.871 232.275 159.596 230.823 167.735C229.298 175.874 227.918 182.813 227.701 183.156C227.484 183.499 227.047 179.257 226.757 173.732C225.887 157.969 225.305 153.3 224.289 152.486C223.491 151.8 223.271 151.843 222.183 153.085C221.529 153.814 220.948 155.227 220.948 156.255C220.876 157.669 220.441 156.983 219.206 153.257C217.998 149.857 217.023 149.986 216.822 153.589C216.2 164.719 215.213 189.746 215.213 196.135V197.516C215.213 200.417 214.065 203.201 212.019 205.259L210.18 207.134C209.593 207.732 208.577 207.446 208.388 206.63C208.171 205.645 207.662 192.623 207.227 177.801C206.429 152.186 206.137 148.887 204.323 148.887C203.379 148.887 202.144 153.642 202.144 157.112C202.144 158.954 201.927 160.453 201.635 160.453C201.273 160.453 200.402 159.853 199.603 159.169C198.805 158.483 197.934 157.883 197.714 157.883C196.916 157.883 194.884 164.865 194.884 167.649C194.884 169.662 194.592 170.391 193.794 170.606C193.14 170.734 191.69 171.977 190.527 173.303C189.158 174.919 188.331 176.925 188.164 179.036L187.188 191.381C186.317 202.69 185.736 207.23 185.009 208.087C184.356 208.815 183.994 210.571 183.994 212.713C183.994 214.598 183.847 216.139 183.557 216.139C183.34 216.139 181.234 215.369 178.838 214.426C176.246 213.364 174.553 210.841 174.553 208.04V200.162C174.481 189.967 174.336 187.526 173.465 186.84C172.602 186.146 171.936 187.162 171.704 188.245C171.262 190.303 170.513 194.076 169.762 198.234C168.601 204.317 167.511 209.286 167.294 209.286C167.004 209.286 166.278 208.173 165.552 206.802L165.547 206.794C164.159 204.204 163.489 202.956 162.964 202.976C161.745 203.024 159.876 203.82 158.783 204.365C156.319 205.592 152.583 213.583 147.957 237.371C146.723 243.713 145.399 243.71 144.888 237.269C144.161 228.099 143.334 215.386 143.334 207.659C143.262 187.439 143.117 183.67 142.246 182.985C141.664 182.514 141.011 182.257 140.793 182.385C140.576 182.514 139.413 184.313 138.253 186.369C136.825 188.867 136.074 191.694 136.074 194.571V200.762C136.8 209.202 131.891 218.18 129.859 227.477C128.4 234.156 126.561 240.492 126.561 233.055C126.344 223.373 126.998 190.31 126.561 177.801L126.057 161.989C125.916 157.562 124.098 153.353 120.971 150.215C120.82 150.062 120.735 149.855 120.735 149.64Z" fill="#71717A"/>
<path d="M120.735 149.64V133.432C120.735 132.285 118.74 130.607 118.74 131.753C118.74 131.967 117.723 137.022 116.489 142.976C115.327 148.93 113.73 160.154 112.931 167.95L112.129 176.631C111.813 180.044 109.83 183.08 106.832 184.74C103.882 186.401 101.948 189.419 101.673 192.794L101.024 200.762C100.371 208.087 99.7898 215.197 99.7898 216.525C99.5722 221.708 99.1365 216.611 97.3941 191.295C95.1431 159.34 95.0707 158.611 93.8364 157.155C92.6747 155.87 92.5295 156.769 91.0773 176.089C90.6416 181.956 90.2061 186.84 90.0609 186.925C89.5526 187.268 87.5923 186.369 86.7937 185.384C86.3726 184.868 85.551 184.998 85.3106 185.619L85.269 185.727C84.9785 186.54 83.962 189.924 83.0182 193.222L82.9727 193.386C82.6565 194.522 80.9975 194.355 80.9127 193.18C80.6222 189.839 80.0413 176.859 79.5332 164.266C78.8796 147.56 78.3715 141.091 77.7179 140.32C77.3064 139.872 77.0739 139.619 76.907 139.633C76.6912 139.651 76.584 140.115 76.3386 141.177C75.5398 144.947 74.4508 154.113 74.4508 157.798C74.3781 161.91 73.87 161.823 71.9096 157.455C71.1836 155.913 70.385 154.542 70.0945 154.328C69.8767 154.156 68.715 158.997 67.6259 165.036C66.1306 172.943 62.1294 188.402 60.0616 194.786C59.4266 196.746 58.4778 196.739 58.4778 194.679C58.4778 187.569 56.953 142.419 56.5901 139.164C56.3723 137.236 55.7913 135.351 55.2832 134.966C54.3448 134.199 54.3394 134.237 51.1278 156.932L51.072 157.326C50.6365 160.668 49.9829 163.324 49.7653 163.237C49.4748 163.151 48.676 161.996 47.9501 160.71C47.1515 159.382 46.3527 158.312 46.135 158.312C45.8446 158.312 44.7555 161.953 43.6664 166.45C42.65 170.905 41.2705 175.232 40.6895 176.045C40.1088 176.902 39.6005 178.701 39.6005 180.114C39.6005 182.257 39.3826 182.642 38.5114 182.471C37.7128 182.299 37.4223 182.514 37.3497 183.199C37.3497 183.755 36.9142 186.155 36.4059 188.511C36.2751 189.154 35.3346 189.085 35.2993 188.43L35.0264 183.37C34.7359 178.187 34.3004 166.321 34.0825 157.026C33.7194 141.306 33.0661 136.251 31.6866 137.15C30.8154 137.75 27.4756 157.969 25.4425 175.232C25.307 176.356 25.1729 177.456 25.0417 178.517C24.0536 186.512 22.6277 186.509 21.522 178.53C19.6341 163.966 19.5617 163.409 18.2548 163.708C17.6012 163.838 16.73 163.109 15.641 161.524C14.5644 159.883 13.4974 160.253 13.1793 162.189C12.8538 164.171 12.4322 166.994 12.0107 170.091C11.1395 176.002 10.1957 181.186 9.90519 181.657C9.54209 182.128 9.10661 179.686 8.81613 175.874C8.54714 172.503 7.90477 166.119 7.40764 161.18L7.29136 160.024C6.71064 154.97 6.2023 146.275 6.2023 140.706C6.2023 134.095 5.31256 125.709 5.61648 119.105L7.65446 74.8243C7.65446 71.6545 8.38042 74.139 10.123 83.2202C11.1395 88.4461 12.0107 94.6145 12.0107 96.9276V98.2394C12.0107 100.051 12.9802 101.724 14.5519 102.625C15.9314 103.396 17.1657 103.996 17.3834 103.867C17.5286 103.781 18.4724 100.869 19.5617 97.3988C21.3041 91.5303 21.4493 90.2453 21.4493 78.1227V67.4195C21.4493 66.4135 22.5432 65.7888 23.4096 66.3001C23.6083 66.4213 23.7838 66.4994 23.9411 66.5695L23.9412 66.5695C24.0251 66.6068 24.1038 66.6419 24.1781 66.6799C25.3116 67.2595 25.4252 68.5337 27.2772 89.3169L27.2772 89.317C27.4886 91.6901 27.7228 94.3176 27.9837 97.2274C29.0727 109.521 29.6537 113.634 30.3797 114.062C30.4133 114.082 30.4457 114.102 30.4771 114.122C30.5894 114.193 30.6877 114.254 30.7759 114.25C31.3958 114.217 31.5189 110.901 32.5066 84.2737L32.5072 84.2573C32.6108 81.4629 32.724 78.412 32.8483 75.0814C33.1088 66.1673 34.2438 66.1199 35.3012 74.9749C35.402 75.8189 35.5043 76.6844 35.6073 77.5658L36.9663 88.9761C37.3084 91.8489 38.6221 94.5184 40.6895 96.5422C43.8843 99.5835 43.9569 99.7548 43.9569 103.182C43.9569 105.452 44.3198 107.037 44.9007 107.508C45.8446 108.236 46.0624 108.151 48.0227 106.223C48.8948 105.322 50.4183 105.752 50.6909 106.976L51.7256 111.62C52.6694 115.733 53.6858 119.673 53.9763 120.402C54.2668 121.13 55.2832 111.021 56.227 97.0562C57.1708 83.52 58.1873 70.1981 58.4051 67.4995C58.4956 66.4767 59.9342 66.3363 60.2207 67.3223L60.5833 68.5703C61.6723 72.4256 62.4711 77.009 62.6888 81.4211L62.8533 85.2803C62.9331 87.1514 63.8368 88.8912 65.3215 90.0326C66.8676 91.2212 67.78 93.0555 67.7952 95.0056L67.8438 101.254C67.989 108.408 68.2069 110.678 68.9328 111.149C69.804 111.62 70.0945 111.32 71.111 109.35C71.7645 108.065 72.2726 106.137 72.3453 105.109C72.3453 103.996 73.2165 105.966 74.3781 110.121L75.2692 113.236C75.5102 114.079 76.7322 113.988 76.8467 113.12C77.1372 110.978 78.0084 101.468 78.8072 91.9158C79.6784 82.3634 80.5496 73.3251 80.8401 71.7831C81.3482 69.0416 81.4208 69.0843 83.4539 77.6944L84.9769 84.0153C85.309 85.3933 86.6209 86.3039 88.028 86.1331C89.3078 85.9958 90.424 86.9986 90.424 88.2857V97.1847C90.424 106.223 90.6416 108.622 91.4404 109.307C92.4569 110.078 92.5295 110.078 92.8924 109.05C93.1102 108.45 94.1266 104.681 95.1431 100.612C96.8131 93.7579 96.9583 92.13 96.9583 77.0947C96.9583 68.1848 97.1762 61.0312 97.3941 61.1597C97.6117 61.2883 99.2091 68.3134 101.024 76.7519C102.767 85.1906 104.364 92.13 104.509 92.2157C104.654 92.3014 105.671 90.4165 106.832 87.975C108.648 84.0769 108.938 83.7342 109.446 84.8479C109.955 86.0045 118.74 126.956 118.74 128.198C118.74 129.378 120.735 127.764 120.735 126.583V107.847C120.735 107.695 120.779 107.547 120.862 107.42C120.898 107.364 120.935 107.308 120.971 107.251C124.154 102.404 125.94 96.7749 126.134 90.98L126.561 78.2084C126.919 68.4646 127.325 54.9638 127.619 45.1449C127.641 44.4051 127.663 43.6863 127.683 42.9915L127.685 42.9515C127.724 41.6128 127.761 40.364 127.797 39.2278C128.161 25.0063 128.45 21.708 129.321 20.8513C130.221 19.9897 131.412 20.6754 132.082 21.7255C132.594 22.5283 133.217 23.5702 133.823 24.6636C135.3 27.3328 136.074 30.3332 136.074 33.3835V48.1377C136.074 64.3295 136.219 67.7565 137.162 68.7417C138.325 70.1124 140.357 70.755 140.793 69.9411C140.938 69.6841 142.101 59.4891 143.334 47.3666C144.569 35.2441 145.802 25.2205 145.949 25.1348C146.094 25.0492 146.239 25.2633 146.239 25.6489C146.239 26.0772 147.254 31.6887 148.49 38.157L149.476 43.5098C150.252 47.7185 152.317 51.5814 155.387 54.5631C159.525 58.6325 160.034 59.4035 160.034 61.374C160.034 63.4301 161.848 66.6427 162.936 66.6427C163.81 66.6427 165.043 64.7151 165.26 63.0016C165.479 61.5025 165.769 61.9308 167.73 66.2144C169.907 70.8835 170.054 71.526 170.054 79.1508C170.126 85.4477 170.343 87.4181 171.214 88.3604C171.614 88.8006 172.347 88.5346 172.371 87.9403L172.377 87.8036C172.377 85.6988 173.519 71.2113 174.254 62.9986C174.59 59.2471 175.616 59.1044 176.732 62.7019C177.603 65.7003 178.621 68.4846 178.838 68.9559C179.492 69.9839 182.105 57.9043 181.67 55.8053C181.161 53.2352 182.177 54.5202 185.371 60.5172C187.326 64.202 188.349 68.3098 188.349 72.4811V80.0931C188.349 89.7312 188.64 94.3576 189.22 95.1286C190.165 96.328 191.109 96.4992 191.69 95.5569C192.489 94.4004 193.068 94.8715 195.174 98.127C196.843 100.74 197.425 101.254 198.223 100.869C198.877 100.526 199.239 99.4121 199.239 97.5702C199.239 93.972 200.185 94.4859 201.782 98.9838C202.508 100.869 203.307 102.668 203.596 103.01C203.886 103.31 204.322 100.911 204.612 97.6559C204.751 96.0854 204.938 93.8738 205.136 91.53L205.138 91.5173L205.294 89.6708C205.462 87.6771 205.63 85.684 205.775 83.9913C206.209 79.7505 207.008 70.5836 207.589 63.6442C208.069 58.5532 208.549 54.1077 208.827 52.0499C208.937 51.2383 209.404 51.0882 209.404 51.9073C209.404 52.5926 210.711 59.3178 212.308 66.8141C215.141 80.0076 215.213 80.9499 215.213 93.3723C215.285 103.696 215.43 106.437 216.301 107.037C217.247 107.808 217.319 107.808 218.046 106.951C218.48 106.48 218.844 105.281 218.844 104.295C218.844 103.346 218.844 102.909 219.199 102.75C219.502 102.615 220.06 102.678 221.092 102.796L221.092 102.796L221.095 102.796C223.054 103.01 223.344 102.882 224.362 101.554C224.943 100.74 225.377 98.8124 225.377 97.2274C225.377 94.7002 225.522 94.4432 226.685 94.7002C227.339 94.8716 228.789 95.2142 229.952 95.4284C231.04 95.6426 231.913 96.1566 231.913 96.5422C231.913 96.9705 232.275 100.269 232.712 103.91C233.438 110.164 234.309 112.905 235.542 112.905C236.268 112.905 237.72 107.508 237.793 104.681C237.814 104.029 238.676 103.812 239.003 104.377L239.971 106.052C241.713 109.007 242.078 110.378 242.078 113.548C242.078 117.789 242.729 118.988 244.546 118.089C245.127 117.789 245.706 116.932 245.853 116.204C246.071 114.919 246.143 114.962 247.451 117.189C248.466 118.987 249.173 121.075 249.015 123.134L248.134 134.557C247.973 136.648 246.756 139.341 244.908 138.35C243.602 137.664 243.53 137.664 243.53 138.65C243.53 139.207 242.729 145.589 241.713 152.743C240.698 159.939 239.899 166.193 239.899 166.622C239.899 167.194 239.391 167.02 239.167 166.493C237.927 163.589 234.09 153.468 234.09 152.914C234.09 152.743 233.945 152.7 233.8 152.785C233.655 152.871 232.275 159.596 230.823 167.735C229.298 175.874 227.918 182.813 227.701 183.156C227.484 183.499 227.047 179.257 226.757 173.732C225.887 157.969 225.305 153.3 224.289 152.486C223.491 151.8 223.271 151.843 222.183 153.085C221.529 153.814 220.948 155.227 220.948 156.255C220.876 157.669 220.441 156.983 219.206 153.257C217.998 149.857 217.023 149.986 216.822 153.589C216.2 164.719 215.213 189.746 215.213 196.135V197.516C215.213 200.417 214.065 203.201 212.019 205.259L210.18 207.134C209.593 207.732 208.577 207.446 208.388 206.63C208.171 205.645 207.662 192.623 207.227 177.801C206.429 152.186 206.137 148.887 204.323 148.887C203.379 148.887 202.144 153.642 202.144 157.112C202.144 158.954 201.927 160.453 201.635 160.453C201.273 160.453 200.402 159.853 199.603 159.169C198.805 158.483 197.934 157.883 197.714 157.883C196.916 157.883 194.884 164.865 194.884 167.649C194.884 169.662 194.592 170.391 193.794 170.606C193.14 170.734 191.69 171.977 190.527 173.303C189.158 174.919 188.331 176.925 188.164 179.036L187.188 191.381C186.317 202.69 185.736 207.23 185.009 208.087C184.356 208.815 183.994 210.571 183.994 212.713C183.994 214.598 183.847 216.139 183.557 216.139C183.34 216.139 181.234 215.369 178.838 214.426C176.246 213.364 174.553 210.841 174.553 208.04V200.162C174.481 189.967 174.336 187.526 173.465 186.84C172.602 186.146 171.936 187.162 171.704 188.245C171.262 190.303 170.513 194.076 169.762 198.234C168.601 204.317 167.511 209.286 167.294 209.286C167.004 209.286 166.278 208.173 165.552 206.802L165.547 206.794C164.159 204.204 163.489 202.956 162.964 202.976C161.745 203.024 159.876 203.82 158.783 204.365C156.319 205.592 152.583 213.583 147.957 237.371C146.723 243.713 145.399 243.71 144.888 237.269C144.161 228.099 143.334 215.386 143.334 207.659C143.262 187.439 143.117 183.67 142.246 182.985C141.664 182.514 141.011 182.257 140.793 182.385C140.576 182.514 139.413 184.313 138.253 186.369C136.825 188.867 136.074 191.694 136.074 194.571V200.762C136.8 209.202 131.891 218.18 129.859 227.477C128.4 234.156 126.561 240.492 126.561 233.055C126.344 223.373 126.998 190.31 126.561 177.801L126.057 161.989C125.916 157.562 124.098 153.353 120.971 150.215C120.82 150.062 120.735 149.855 120.735 149.64Z" stroke="#A1A1AA" stroke-width="2.50526" mask="url(#path-5-outside-1_11_16)"/>
<path d="M120.532 137.288V131.577C120.532 130.706 118.534 129.288 118.534 130.16C118.534 130.246 117.517 132.281 116.282 134.678C115.119 137.075 113.521 141.593 112.721 144.732L112.295 146.589C111.755 148.935 109.553 150.837 106.618 151.491C103.735 152.144 101.595 154.038 101.126 156.353L100.805 157.941C100.151 160.89 99.5696 163.752 99.5696 164.287C99.3518 166.373 98.9157 164.321 97.172 154.13C94.9192 141.265 94.8468 140.972 93.6115 140.386C92.4489 139.868 92.3036 140.231 90.8503 148.008C90.4142 150.37 89.9784 152.336 89.833 152.371C89.3243 152.509 87.3625 152.146 86.5633 151.75L86.4365 151.687C85.9744 151.46 85.3657 151.547 85.0373 151.888C84.7466 152.215 83.7294 153.578 82.7848 154.906L82.6086 155.16C82.1345 155.845 80.8159 155.659 80.6777 154.888C80.387 153.543 79.8056 148.318 79.2971 143.249C78.643 136.523 78.1345 133.919 77.4804 133.609C77.0685 133.428 76.8358 133.326 76.6688 133.332C76.4529 133.339 76.3456 133.526 76.1 133.954C75.3006 135.471 74.2106 139.161 74.2106 140.645C74.138 142.3 73.6295 142.265 71.6674 140.507C70.9409 139.886 70.1417 139.334 69.851 139.248C69.633 139.179 68.4704 141.127 67.3804 143.559C65.4913 147.577 59.6057 156.44 58.6611 156.682C58.3704 156.734 58.2251 156.199 58.2251 155.492C58.2251 152.63 56.6991 134.454 56.336 133.143C56.1179 132.367 55.5365 131.608 55.028 131.453C54.0888 131.145 54.0834 131.16 50.8693 140.296L50.8135 140.455C50.3776 141.8 49.7236 142.869 49.5058 142.834C49.2151 142.8 48.4156 142.335 47.6891 141.817C46.8899 141.283 46.0904 140.852 45.8726 140.852C45.5819 140.852 44.492 142.317 43.4021 144.128C42.3849 145.921 41.0042 147.663 40.4228 147.99C39.8417 148.335 39.3329 149.06 39.3329 149.629C39.3329 150.491 39.1149 150.646 38.243 150.578C37.3476 150.5 37.008 151.222 36.7009 151.883C36.5417 152.226 36.3449 152.619 36.1359 153.009C35.9124 153.451 35.0801 153.362 35.0168 152.889L34.7552 150.939C34.4645 148.853 34.0287 144.076 33.8107 140.334C33.4473 134.005 32.7934 131.971 31.4128 132.333C30.5409 132.574 27.1985 140.714 25.1638 147.663C25.0298 148.111 24.8971 148.548 24.7673 148.971C23.7577 152.257 22.3646 152.255 21.2402 148.991C19.3509 143.128 19.2784 142.904 17.9705 143.024C17.3164 143.076 16.4445 142.783 15.3546 142.145C14.188 141.43 13.1396 141.768 12.7059 142.876C12.413 143.624 12.0672 144.572 11.7215 145.593C10.8496 147.973 9.90501 150.06 9.6143 150.25C9.25092 150.439 8.81509 149.456 8.52439 147.922C8.25518 146.564 7.61231 143.995 7.11479 142.006L6.99842 141.541C6.41724 139.506 5.9085 136.006 5.9085 133.764C5.9085 131.113 5.04315 127.507 5.34526 124.867L7.3618 107.242C7.3618 105.966 8.08833 106.966 9.83233 110.622C10.8496 112.726 11.7215 115.209 11.7215 116.14C11.7215 117.153 12.5749 118.044 13.8182 118.331L14.2647 118.434C15.6453 118.744 16.8806 118.986 17.0984 118.934C17.2437 118.899 18.1883 117.727 19.2784 116.33C21.0222 113.967 21.1675 113.45 21.1675 108.57V104.946C21.1675 104.149 22.1531 103.579 23.1293 103.81C23.3282 103.859 23.5039 103.891 23.6613 103.919C23.7452 103.934 23.8241 103.948 23.8984 103.963C25.0329 104.197 25.1465 104.71 27 113.076L27.0003 113.078C27.2118 114.033 27.446 115.09 27.707 116.261C28.7969 121.21 29.3783 122.866 30.1049 123.038C30.1385 123.046 30.171 123.054 30.2024 123.062C30.3148 123.091 30.4132 123.115 30.5014 123.114C31.1219 123.1 31.245 121.765 32.2335 111.046C32.3373 109.919 32.4508 108.689 32.5754 107.346C32.8377 103.736 33.949 103.669 34.997 107.191C35.1086 107.566 35.2222 107.952 35.3366 108.346L36.4192 112.002C36.9302 113.728 38.3972 115.187 40.4228 115.985C43.6201 117.209 43.6928 117.278 43.6928 118.658C43.6928 119.572 44.056 120.21 44.6374 120.4C45.5819 120.693 45.8 120.658 47.7618 119.882C48.8578 119.427 50.2181 119.799 50.7109 120.689L51.4676 122.055C52.4121 123.711 53.4294 125.297 53.7201 125.59C54.0108 125.883 55.028 121.814 55.9726 116.192C56.9171 110.743 57.9344 105.38 58.1524 104.293C58.2984 103.63 59.4306 103.476 59.8543 104.063L60.3322 104.724C61.4221 106.276 62.2216 108.122 62.4394 109.898L62.5252 110.707C62.6507 111.891 63.6249 112.916 65.0391 113.354C66.5442 113.819 67.5417 114.947 67.5662 116.211L67.5985 117.882C67.7438 120.762 67.9618 121.676 68.6884 121.865C69.5603 122.055 69.851 121.934 70.8682 121.141V121.141C71.9852 120.258 72.7059 119.547 73.5733 120.677C73.7513 120.908 73.9404 121.167 74.138 121.451L75.104 122.81C75.4625 123.314 76.4255 123.217 76.6085 122.659C76.8992 121.796 77.7711 117.968 78.5705 114.123C79.4424 110.277 80.3143 106.639 80.605 106.018C81.1135 104.914 81.1862 104.931 83.2209 108.397L84.2793 110.164C84.9121 111.221 86.308 111.867 87.7986 111.795C89.1009 111.738 90.1964 112.548 90.1964 113.566V116.244C90.1964 119.882 90.4142 120.848 91.2137 121.124C92.2309 121.434 92.3036 121.434 92.6667 121.02C92.8848 120.779 93.902 119.261 94.9192 117.623C96.5906 114.864 96.7359 114.209 96.7359 108.156C96.7359 104.569 96.9539 101.689 97.172 101.741C97.3898 101.793 98.9884 104.621 100.805 108.018C102.549 111.415 104.148 114.209 104.293 114.243C104.438 114.278 105.455 113.519 106.618 112.536C108.434 110.967 108.725 110.829 109.234 111.277C109.742 111.743 118.534 128.229 118.534 128.729C118.534 129.61 120.532 128.225 120.532 127.344V120.569C120.532 120.489 120.578 120.414 120.658 120.364C120.694 120.342 120.731 120.319 120.768 120.296C123.867 118.398 125.784 115.559 126.039 112.49L126.362 108.604C126.72 104.682 127.126 99.2468 127.421 95.294C127.443 94.9962 127.464 94.7068 127.485 94.4272L127.487 94.397C127.527 93.8634 127.564 93.3654 127.598 92.912C127.963 87.1869 128.253 85.8591 129.124 85.5142C129.706 85.29 130.433 85.1865 130.795 85.2555C131.087 85.3417 132.394 86.1522 133.63 87.0489C135.067 88.0937 135.883 89.5578 135.883 91.0909V96.4988C135.883 103.017 136.028 104.397 136.972 104.793C138.135 105.345 140.168 105.604 140.605 105.276C140.75 105.173 141.914 101.069 143.148 96.1884C144.384 91.3083 145.618 87.2731 145.765 87.2386C145.91 87.2041 146.055 87.2903 146.055 87.4455C146.055 87.618 147.072 89.877 148.308 92.4809L148.709 93.3575C149.851 95.8494 152.18 97.9013 155.211 99.0855C159.352 100.724 159.861 101.034 159.861 101.827C159.861 102.655 161.677 103.948 162.766 103.948C163.64 103.948 164.874 103.172 165.091 102.483C165.311 101.879 165.601 102.052 167.564 103.776C169.741 105.656 169.889 105.914 169.889 108.984C169.961 111.519 170.178 112.312 171.05 112.691L171.351 112.824C171.72 112.988 172.18 112.797 172.214 112.467C172.214 111.644 173.292 106.117 174.028 102.771C174.406 101.057 175.423 100.871 176.572 102.362C177.833 104.107 179.702 104.283 180.654 102.422C181.263 101.23 181.716 99.977 181.515 99.5856C181.005 98.5509 182.022 99.0683 185.219 101.482C187.123 102.927 188.198 104.911 188.198 106.984V109.363C188.198 113.243 188.49 115.106 189.07 115.416C190.016 115.899 190.96 115.968 191.542 115.588C192.341 115.123 192.921 115.312 195.029 116.623C196.7 117.675 197.281 117.882 198.081 117.727C198.735 117.589 199.097 117.14 199.097 116.399C199.097 114.95 200.044 115.157 201.642 116.968C202.369 117.727 203.168 118.451 203.458 118.589C203.748 118.71 204.184 117.744 204.474 116.433C204.613 115.8 204.801 114.908 205 113.962L205.157 113.219C205.325 112.416 205.493 111.614 205.638 110.932C206.073 109.225 206.872 105.535 207.454 102.741C207.921 100.745 208.389 98.9956 208.671 98.1405C208.795 97.7615 209.27 97.625 209.27 98.0164C209.27 98.2923 210.578 101 212.177 104.017C215.011 109.329 215.084 109.708 215.084 114.709C215.156 118.865 215.301 119.968 216.173 120.21C217.119 120.52 217.192 120.52 217.918 120.175C218.353 119.986 218.717 119.503 218.717 119.106C218.717 118.724 218.717 118.548 219.073 118.484C219.376 118.43 219.934 118.455 220.967 118.503L220.97 118.503C222.931 118.589 223.221 118.537 224.239 118.003C224.821 117.675 225.256 116.899 225.256 116.261C225.256 115.243 225.401 115.14 226.565 115.243C227.219 115.312 228.67 115.45 229.834 115.537C230.923 115.623 231.797 115.83 231.797 115.985C231.797 116.157 232.159 117.485 232.596 118.951C233.323 121.469 234.195 122.572 235.428 122.572C236.155 122.572 237.609 120.4 237.681 119.261C237.711 118.891 238.274 118.709 238.629 118.956L239.861 119.813C241.605 121.003 241.969 121.555 241.969 122.831C241.969 124.538 242.621 125.021 244.439 124.659C245.021 124.538 245.601 124.193 245.748 123.9C245.965 123.383 246.038 123.4 247.346 124.297C248.357 125.016 249.026 126.096 248.823 127.152L248.233 130.232C247.949 131.715 246.653 133.215 244.802 132.816C243.495 132.54 243.423 132.54 243.423 132.936C243.423 133.16 242.621 135.73 241.605 138.61C240.588 141.507 239.789 144.024 239.789 144.197C239.789 144.499 239.281 144.358 239.035 144.125C237.773 142.93 233.975 138.901 233.975 138.679C233.975 138.61 233.83 138.592 233.685 138.627C233.54 138.661 232.159 141.369 230.706 144.645C229.18 147.922 227.799 150.715 227.581 150.853C227.364 150.991 226.927 149.284 226.637 147.059C225.765 140.714 225.184 138.834 224.167 138.506C223.368 138.23 223.148 138.248 222.059 138.748C221.405 139.041 220.823 139.61 220.823 140.024C220.751 140.593 220.316 140.317 219.08 138.817C218.136 137.747 217.264 136.833 217.119 136.782C216.755 136.695 215.084 152.733 215.084 156.078C215.084 157.54 214.04 158.88 212.378 159.552L211.887 159.751L209.634 160.675C209.122 160.885 208.49 160.714 208.253 160.303C208.036 159.906 207.526 154.664 207.092 148.697C206.292 138.385 206 137.058 204.185 137.058C203.24 137.058 202.004 138.972 202.004 140.369C202.004 141.11 201.787 141.713 201.495 141.713C201.133 141.713 200.261 141.472 199.462 141.197C198.663 140.92 197.791 140.679 197.571 140.679C196.772 140.679 194.739 143.49 194.739 144.611C194.739 145.421 194.447 145.714 193.648 145.801C192.993 145.852 191.542 146.353 190.378 146.887C189.042 147.521 188.133 148.584 187.896 149.791L187.037 154.164C186.165 158.717 185.583 160.545 184.856 160.89C184.202 161.182 183.84 161.89 183.84 162.752C183.84 163.511 183.693 164.131 183.403 164.131C183.185 164.131 181.078 163.821 178.68 163.441C176.181 163.03 174.392 161.307 174.392 159.313V157.699C174.319 153.595 174.175 152.612 173.303 152.336C172.402 152.045 171.697 152.591 171.333 153.297C170.884 154.167 170.241 155.488 169.597 156.923C168.435 159.372 167.344 161.372 167.127 161.372C166.837 161.372 166.11 160.924 165.383 160.372L165.379 160.369C163.989 159.326 163.319 158.824 162.794 158.832C162.306 158.84 161.941 159.292 161.242 160.165C160.516 161.062 159.934 162.407 159.934 163.131C159.861 164.062 159.569 164.493 158.842 164.597C156.592 164.907 155.501 165.821 155.501 167.391C155.501 168.293 154.656 169.06 153.514 169.195L149.689 169.649C146.49 170.029 143.73 170.339 143.513 170.339C143.293 170.339 143.148 166.011 143.148 160.717C143.076 152.577 142.931 151.06 142.059 150.784C141.477 150.595 140.823 150.491 140.605 150.543C140.388 150.595 139.224 151.319 138.063 152.146L137.91 152.254C136.62 153.162 135.883 154.456 135.883 155.813V167.33C135.883 168.539 133.883 169.022 133.009 168.024C132.669 167.636 132.044 167.446 131.641 167.795C130.214 169.029 129.127 172.625 128.819 172.625C128.529 172.625 127.888 168.856 127.598 164.942C127.381 161.044 126.799 153.733 126.362 148.697L125.976 143.831C125.766 141.181 123.788 138.812 120.768 137.592C120.623 137.533 120.532 137.416 120.532 137.288Z" fill="#A1A1AA"/>
<rect x="110.336" y="125.211" width="18.5938" height="9.29688" fill="#A1A1AA"/>
<rect x="-38.4141" y="-158.344" width="304.938" height="570.828" fill="url(#paint0_radial_11_16)"/>
<g filter="url(#filter0_d_11_16)">
<path d="M95.2074 78.135H118.027V377.072C118.027 383.373 112.919 388.482 106.617 388.482V388.482C100.316 388.482 95.2074 383.373 95.2074 377.072V78.135Z" fill="#0EA5E9"/>
<path d="M98.1957 81.1233H115.039V377.072C115.039 381.723 111.268 385.493 106.617 385.493C101.966 385.493 98.1957 381.723 98.1957 377.072V81.1233Z" stroke="#18181B" stroke-opacity="0.2" stroke-width="5.97656"/>
<path d="M147.224 43.2893L111.365 90.1823C108.973 93.3104 104.262 93.3104 101.87 90.1823L66.0103 43.2893C65.2131 42.2469 64.7812 40.9711 64.7812 39.6588V18.6953C64.7812 15.3945 67.4571 12.7188 70.7578 12.7188H142.477C145.777 12.7188 148.453 15.3946 148.453 18.6953V39.6588C148.453 40.9711 148.021 42.2469 147.224 43.2893Z" fill="#0EA5E9"/>
<path d="M144.85 41.4741L108.991 88.3671C107.795 89.9312 105.439 89.9312 104.243 88.3671L68.384 41.4741L66.0103 43.2893L68.384 41.4741C67.9855 40.9529 67.7695 40.315 67.7695 39.6588V18.6953C67.7695 17.0449 69.1074 15.707 70.7578 15.707H142.477C144.127 15.707 145.465 17.0449 145.465 18.6953V39.6588C145.465 40.315 145.249 40.9528 144.85 41.4741L147.085 43.1832L144.85 41.4741Z" stroke="#18181B" stroke-opacity="0.2" stroke-width="5.97656"/>
</g>
</g>
<rect x="5.86842" y="5.86842" width="244.263" height="244.263" rx="47.7566" stroke="#52525B" stroke-width="6.26316"/>
<defs>
<filter id="filter0_d_11_16" x="16.9687" y="-11.1875" width="179.297" height="471.388" filterUnits="userSpaceOnUse" color-interpolation-filters="sRGB">
<feFlood flood-opacity="0" result="BackgroundImageFix"/>
<feColorMatrix in="SourceAlpha" type="matrix" values="0 0 0 0 0 0 0 0 0 0 0 0 0 0 0 0 0 0 127 0" result="hardAlpha"/>
<feOffset dy="23.9063"/>
<feGaussianBlur stdDeviation="23.9063"/>
<feComposite in2="hardAlpha" operator="out"/>
<feColorMatrix type="matrix" values="0 0 0 0 0 0 0 0 0 0 0 0 0 0 0 0 0 0 0.25 0"/>
<feBlend mode="normal" in2="BackgroundImageFix" result="effect1_dropShadow_11_16"/>
<feBlend mode="normal" in="SourceGraphic" in2="effect1_dropShadow_11_16" result="shape"/>
</filter>
<radialGradient id="paint0_radial_11_16" cx="0" cy="0" r="1" gradientUnits="userSpaceOnUse" gradientTransform="translate(114.055 127.07) rotate(90) scale(285.414 152.469)">
<stop stop-opacity="0"/>
<stop offset="1" stop-opacity="0.87"/>
</radialGradient>
<clipPath id="clip0_11_16">
<rect x="9" y="9" width="238" height="238" rx="44.625" fill="white"/>
</clipPath>
</defs>
</svg>
