<svg width="256" height="256" viewBox="0 0 256 256" fill="none" xmlns="http://www.w3.org/2000/svg">
<g clip-path="url(#clip0_17_57)">
<g filter="url(#filter0_d_17_57)">
<path fill-rule="evenodd" clip-rule="evenodd" d="M231 89.1568C231 86.7113 231.001 84.2655 230.986 81.8198C230.974 79.7596 230.95 77.6998 230.894 75.6406C230.773 71.1523 230.508 66.6256 229.71 62.1874C228.9 57.6851 227.579 53.4949 225.495 49.4042C223.447 45.3834 220.772 41.7042 217.58 38.5145C214.389 35.3247 210.709 32.6512 206.686 30.6045C202.591 28.5207 198.397 27.1992 193.889 26.39C189.451 25.593 184.923 25.3287 180.435 25.2075C178.374 25.1517 176.313 25.1282 174.252 25.1155C171.805 25.1005 169.358 25.1017 166.911 25.1017L138.499 25H117.249L89.3403 25.1017C86.8885 25.1017 84.4368 25.1005 81.9851 25.1155C79.9196 25.1282 77.8551 25.1517 75.7904 25.2075C71.2917 25.3287 66.7534 25.5932 62.3042 26.3912C57.791 27.2002 53.59 28.5212 49.4896 30.6035C45.4588 32.6505 41.7706 35.3242 38.5726 38.5145C35.3752 41.7039 32.6949 45.3824 30.6432 49.4024C28.5542 53.4951 27.2297 57.6879 26.4182 62.1926C25.6192 66.6291 25.3545 71.1543 25.2327 75.6406C25.1772 77.7001 25.1532 79.7598 25.1407 81.8198C25.1257 84.2658 25 87.304 25 89.7498L25.0007 117.272L25 138.75L25.127 166.857C25.127 169.306 25.126 171.755 25.1407 174.204C25.1532 176.267 25.1772 178.329 25.233 180.391C25.3545 184.885 25.6197 189.419 26.4195 193.863C27.2307 198.371 28.555 202.567 30.6422 206.663C32.6942 210.69 35.3749 214.374 38.5726 217.568C41.7704 220.762 45.4576 223.439 49.4876 225.489C53.5905 227.576 57.7935 228.899 62.3095 229.709C66.7567 230.507 71.2934 230.772 75.7904 230.893C77.8551 230.949 79.9198 230.973 81.9853 230.985C84.4371 231 86.8885 230.999 89.3403 230.999L117.502 231H138.804L166.911 230.999C169.358 230.999 171.805 231 174.252 230.985C176.313 230.973 178.374 230.949 180.435 230.893C184.925 230.772 189.454 230.507 193.895 229.708C198.399 228.898 202.592 227.575 206.685 225.49C210.708 223.44 214.389 220.763 217.58 217.568C220.772 214.374 223.447 210.691 225.495 206.665C227.579 202.567 228.901 198.369 229.711 193.858C230.508 189.415 230.773 184.884 230.894 180.391C230.95 178.329 230.974 176.266 230.986 174.204C231.001 171.755 231 169.306 231 166.857C231 166.857 230.998 139.246 230.998 138.75V117.25C230.998 116.883 231 89.1568 231 89.1568Z" fill="#52525B"/>
</g>
<mask id="mask0_17_57" style="mask-type:alpha" maskUnits="userSpaceOnUse" x="25" y="25" width="206" height="206">
<path fill-rule="evenodd" clip-rule="evenodd" d="M231 89.1568C231 86.7113 231.001 84.2655 230.986 81.8198C230.974 79.7596 230.95 77.6998 230.894 75.6406C230.773 71.1523 230.508 66.6256 229.71 62.1874C228.9 57.6851 227.579 53.4949 225.495 49.4042C223.447 45.3834 220.772 41.7042 217.58 38.5145C214.389 35.3247 210.709 32.6512 206.686 30.6045C202.591 28.5207 198.397 27.1992 193.889 26.39C189.451 25.593 184.923 25.3287 180.435 25.2075C178.374 25.1517 176.313 25.1282 174.252 25.1155C171.805 25.1005 169.358 25.1017 166.911 25.1017L138.499 25H117.249L89.3403 25.1017C86.8885 25.1017 84.4368 25.1005 81.9851 25.1155C79.9196 25.1282 77.8551 25.1517 75.7904 25.2075C71.2917 25.3287 66.7534 25.5932 62.3042 26.3912C57.791 27.2002 53.59 28.5212 49.4896 30.6035C45.4588 32.6505 41.7706 35.3242 38.5726 38.5145C35.3752 41.7039 32.6949 45.3824 30.6432 49.4024C28.5542 53.4951 27.2297 57.6879 26.4182 62.1926C25.6192 66.6291 25.3545 71.1543 25.2327 75.6406C25.1772 77.7001 25.1532 79.7598 25.1407 81.8198C25.1257 84.2658 25 87.304 25 89.7498L25.0007 117.272L25 138.75L25.127 166.857C25.127 169.306 25.126 171.755 25.1407 174.204C25.1532 176.267 25.1772 178.329 25.233 180.391C25.3545 184.885 25.6197 189.419 26.4195 193.863C27.2307 198.371 28.555 202.567 30.6422 206.663C32.6942 210.69 35.3749 214.374 38.5726 217.568C41.7704 220.762 45.4576 223.439 49.4876 225.489C53.5905 227.576 57.7935 228.899 62.3095 229.709C66.7567 230.507 71.2934 230.772 75.7904 230.893C77.8551 230.949 79.9198 230.973 81.9853 230.985C84.4371 231 86.8885 230.999 89.3403 230.999L117.502 231H138.804L166.911 230.999C169.358 230.999 171.805 231 174.252 230.985C176.313 230.973 178.374 230.949 180.435 230.893C184.925 230.772 189.454 230.507 193.895 229.708C198.399 228.898 202.592 227.575 206.685 225.49C210.708 223.44 214.389 220.763 217.58 217.568C220.772 214.374 223.447 210.691 225.495 206.665C227.579 202.567 228.901 198.369 229.711 193.858C230.508 189.415 230.773 184.884 230.894 180.391C230.95 178.329 230.974 176.266 230.986 174.204C231.001 171.755 231 169.306 231 166.857C231 166.857 230.998 139.246 230.998 138.75V117.25C230.998 116.883 231 89.1568 231 89.1568Z" fill="white"/>
</mask>
<g mask="url(#mask0_17_57)">
<rect x="30" y="30" width="196" height="196" fill="#27272A"/>
<rect x="30" y="127.234" width="196" height="1.53125" fill="#D9D9D9"/>
<rect x="30.3828" y="127.617" width="195.234" height="0.765625" stroke="#18181B" stroke-opacity="0.38" stroke-width="0.765625"/>
<mask id="path-6-outside-1_17_57" maskUnits="userSpaceOnUse" x="25.7992" y="38.1875" width="203" height="185" fill="black">
<rect fill="white" x="25.7992" y="38.1875" width="203" height="185"/>
<path d="M122.018 145.821V132.473C122.018 131.529 120.374 130.147 120.374 131.091C120.374 131.267 119.537 135.43 118.52 140.333C117.564 145.237 116.248 154.48 115.591 160.9L114.93 168.049C114.67 170.859 113.037 173.36 110.568 174.727C108.138 176.095 106.546 178.58 106.319 181.36L105.785 187.922C105.247 193.954 104.768 199.809 104.768 200.903C104.589 205.171 104.23 200.973 102.795 180.125C100.941 153.809 100.882 153.209 99.8653 152.01C98.9087 150.952 98.789 151.692 97.5931 167.603C97.2343 172.434 96.8757 176.456 96.7561 176.527C96.3374 176.809 94.7231 176.068 94.0655 175.257C93.7187 174.832 93.0421 174.94 92.844 175.451L92.8098 175.54C92.5705 176.209 91.7335 178.997 90.9562 181.713L90.9187 181.847C90.6583 182.782 89.2921 182.646 89.2223 181.677C88.9831 178.926 88.5046 168.237 88.0862 157.866C87.548 144.108 87.1295 138.781 86.5913 138.146C86.2524 137.777 86.0609 137.568 85.9234 137.58C85.7458 137.595 85.6575 137.977 85.4554 138.852C84.7975 141.956 83.9007 149.505 83.9007 152.54C83.8409 155.926 83.4224 155.855 81.8079 152.257C81.2101 150.987 80.5524 149.858 80.3132 149.682C80.1338 149.54 79.1771 153.527 78.2802 158.5C77.0488 165.012 73.7536 177.743 72.0508 183C71.5278 184.614 70.7464 184.609 70.7464 182.912C70.7464 177.057 69.4907 139.875 69.1919 137.194C69.0125 135.606 68.5341 134.054 68.1156 133.737C67.3428 133.105 67.3384 133.136 64.6935 151.826L64.6476 152.151C64.2889 154.903 63.7507 157.09 63.5715 157.019C63.3323 156.948 62.6744 155.996 62.0766 154.938C61.4189 153.844 60.7611 152.963 60.5818 152.963C60.3426 152.963 59.4457 155.961 58.5489 159.664C57.7118 163.333 56.5757 166.897 56.0973 167.566C55.6191 168.272 55.2004 169.754 55.2004 170.918C55.2004 172.682 55.021 172.999 54.3035 172.859C53.6459 172.717 53.4067 172.894 53.3469 173.458C53.3469 173.916 52.9882 175.893 52.5696 177.833C52.4619 178.362 51.6874 178.305 51.6583 177.766L51.4335 173.599C51.1943 169.33 50.8357 159.559 50.6563 151.904C50.3572 138.957 49.8192 134.795 48.6831 135.536C47.9656 136.03 45.2152 152.68 43.5409 166.897C43.4294 167.823 43.3189 168.728 43.2109 169.602C42.3971 176.186 41.2228 176.184 40.3122 169.613C38.7575 157.619 38.6979 157.16 37.6216 157.407C37.0834 157.513 36.3659 156.913 35.4691 155.608C34.5825 154.257 33.7038 154.561 33.4418 156.156C33.1737 157.788 32.8266 160.112 32.4794 162.663C31.762 167.531 30.9847 171.8 30.7455 172.188C30.4465 172.576 30.0878 170.565 29.8486 167.426C29.6271 164.649 29.0981 159.392 28.6887 155.325L28.5929 154.373C28.1147 150.211 27.6961 143.05 27.6961 138.464C27.6961 133.02 26.9633 126.113 27.2136 120.675L28.8919 84.2083C28.8919 81.5979 29.4898 83.6439 30.9249 91.1225C31.762 95.4262 32.4794 100.506 32.4794 102.411V103.491C32.4794 104.983 33.2778 106.361 34.5722 107.103C35.7083 107.738 36.7248 108.232 36.904 108.126C37.0236 108.055 37.8008 105.656 38.6979 102.799C40.1328 97.9662 40.2524 96.9079 40.2524 86.9245V78.1102C40.2524 77.2817 41.1532 76.7673 41.8668 77.1883C42.0304 77.2881 42.1749 77.3525 42.3045 77.4101L42.3045 77.4102C42.3736 77.4409 42.4384 77.4698 42.4996 77.5011C43.4332 77.9784 43.5267 79.0277 45.0518 96.1432L45.0518 96.1434L45.052 96.1451C45.2261 98.099 45.4189 100.262 45.6337 102.658C46.5305 112.782 47.009 116.169 47.6068 116.522C47.6345 116.538 47.6612 116.555 47.6871 116.571C47.7796 116.629 47.8605 116.68 47.9331 116.676C48.4437 116.649 48.545 113.918 49.3584 91.9902L49.3584 91.9901L49.3591 91.97C49.4444 89.6706 49.5375 87.1602 49.6398 84.42C49.8544 77.0789 50.789 77.0399 51.6599 84.3323C51.7429 85.0273 51.8271 85.7401 51.912 86.466L53.0311 95.8627C53.3129 98.2285 54.3947 100.427 56.0973 102.094C58.7283 104.598 58.7881 104.739 58.7881 107.561C58.7881 109.431 59.0869 110.736 59.5654 111.124C60.3426 111.724 60.522 111.654 62.1364 110.066C62.8546 109.324 64.1093 109.679 64.3337 110.686L65.1858 114.511C65.9631 117.897 66.8001 121.143 67.0393 121.743C67.2786 122.342 68.1156 114.017 68.8929 102.517C69.6702 91.3694 70.5072 80.3984 70.6866 78.176C70.7611 77.3338 71.9459 77.2182 72.1818 78.0301L72.4804 79.0579C73.3772 82.2328 74.0351 86.0074 74.2143 89.6409L74.3499 92.8191C74.4156 94.36 75.1597 95.7928 76.3825 96.7327C77.6557 97.7115 78.4071 99.2222 78.4196 100.828L78.4596 105.974C78.5792 111.865 78.7587 113.735 79.3565 114.123C80.074 114.511 80.3132 114.264 81.1503 112.641C81.6885 111.583 82.1069 109.996 82.1667 109.149C82.1667 108.232 82.8842 109.854 83.8409 113.276L84.5747 115.842C84.7731 116.535 85.7795 116.461 85.8738 115.745C86.113 113.982 86.8305 106.15 87.4883 98.2836C88.2058 90.417 88.9233 82.9736 89.1625 81.7037C89.5809 79.446 89.6407 79.4812 91.315 86.5718L92.5693 91.7773C92.8427 92.9122 93.9231 93.6621 95.0819 93.5213C96.1359 93.4083 97.0551 94.2341 97.0551 95.2941V102.623C97.0551 110.066 97.2343 112.042 97.8922 112.606C98.7292 113.241 98.789 113.241 99.0879 112.394C99.2673 111.9 100.104 108.796 100.941 105.445C102.317 99.8006 102.436 98.46 102.436 86.078C102.436 78.7404 102.616 72.8492 102.795 72.9551C102.974 73.0609 104.29 78.8463 105.785 85.7957C107.22 92.7452 108.535 98.46 108.655 98.5306C108.774 98.6012 109.611 97.0489 110.568 95.0382C112.063 91.8281 112.302 91.5458 112.721 92.4629C113.139 93.4155 120.374 127.14 120.374 128.163C120.374 129.135 122.018 127.805 122.018 126.833V111.403C122.018 111.279 122.053 111.156 122.121 111.052C122.151 111.006 122.182 110.959 122.212 110.913C124.833 106.921 126.304 102.285 126.463 97.513L126.815 86.9951C127.11 78.9709 127.444 67.8526 127.686 59.7664L127.739 57.993L127.74 57.9562C127.773 56.8552 127.804 55.8281 127.833 54.8935C128.132 43.1817 128.371 40.4654 129.088 39.7599C129.829 39.0504 130.81 39.615 131.361 40.4798C131.783 41.1409 132.296 41.999 132.796 42.8995C134.012 45.0976 134.649 47.5685 134.649 50.0805V62.231C134.649 75.5655 134.769 78.3877 135.546 79.199C136.503 80.3279 138.176 80.857 138.536 80.1867C138.655 79.9752 139.613 71.5792 140.628 61.596C141.645 51.6128 142.661 43.3581 142.782 43.2875C142.901 43.217 143.02 43.3933 143.02 43.7108C143.02 44.0636 143.857 48.6848 144.874 54.0116L145.686 58.4199C146.325 61.8858 148.026 65.0671 150.554 67.5225C153.962 70.8738 154.381 71.5088 154.381 73.1315C154.381 74.8248 155.875 77.4705 156.771 77.4705C157.49 77.4705 158.506 75.8831 158.685 74.4719C158.865 73.2373 159.104 73.5901 160.719 77.1178C162.511 80.9629 162.632 81.492 162.632 87.7713C162.692 92.9569 162.871 94.5796 163.588 95.3557C163.918 95.7181 164.521 95.4991 164.541 95.0096L164.546 94.8971C164.546 93.1637 165.486 81.2328 166.092 74.4694C166.368 71.3799 167.213 71.2624 168.132 74.2251C168.849 76.6944 169.688 78.9873 169.867 79.3755C170.405 80.222 172.557 70.2741 172.199 68.5455C171.78 66.429 172.617 67.4872 175.247 72.4259C176.857 75.4605 177.699 78.8434 177.699 82.2785V88.5473C177.699 96.4845 177.939 100.294 178.416 100.929C179.195 101.917 179.972 102.058 180.451 101.282C181.108 100.33 181.585 100.718 183.32 103.399C184.695 105.551 185.173 105.974 185.831 105.656C186.37 105.374 186.668 104.457 186.668 102.94C186.668 99.9769 187.446 100.4 188.762 104.104C189.36 105.656 190.017 107.138 190.256 107.42C190.494 107.667 190.854 105.692 191.092 103.011C191.207 101.715 191.361 99.8895 191.525 97.9554L191.654 96.4348C191.792 94.7929 191.931 93.1515 192.05 91.7575C192.408 88.2651 193.065 80.7159 193.544 75.0011C193.939 70.8085 194.334 67.1475 194.564 65.4529C194.654 64.7845 195.038 64.6609 195.038 65.3354C195.038 65.8998 196.115 71.4382 197.43 77.6116C199.763 88.4768 199.823 89.2528 199.823 99.483C199.882 107.985 200.001 110.242 200.719 110.736C201.498 111.371 201.557 111.371 202.155 110.666C202.513 110.278 202.813 109.29 202.813 108.479C202.813 107.696 202.813 107.337 203.105 107.206C203.355 107.094 203.814 107.147 204.664 107.244L204.667 107.244C206.28 107.42 206.518 107.314 207.357 106.221C207.836 105.551 208.193 103.963 208.193 102.658C208.193 100.577 208.312 100.365 209.27 100.577C209.809 100.718 211.003 101 211.96 101.176C212.856 101.353 213.576 101.776 213.576 102.094C213.576 102.446 213.874 105.163 214.233 108.161C214.831 113.312 215.549 115.569 216.564 115.569C217.162 115.569 218.358 111.124 218.418 108.796C218.435 108.259 219.145 108.081 219.414 108.546L220.212 109.925C221.646 112.359 221.946 113.488 221.946 116.098C221.946 119.591 222.483 120.578 223.979 119.838C224.458 119.591 224.935 118.885 225.056 118.285C225.235 117.227 225.294 117.262 226.371 119.097C227.208 120.577 227.79 122.297 227.659 123.993L226.934 133.4C226.801 135.121 225.799 137.34 224.277 136.523C223.202 135.959 223.142 135.959 223.142 136.77C223.142 137.229 222.483 142.485 221.646 148.376C220.81 154.303 220.152 159.453 220.152 159.806C220.152 160.278 219.734 160.134 219.549 159.7C218.528 157.308 215.368 148.974 215.368 148.517C215.368 148.376 215.249 148.341 215.129 148.412C215.01 148.482 213.874 154.02 212.678 160.723C211.422 167.426 210.285 173.14 210.107 173.423C209.928 173.705 209.568 170.212 209.33 165.661C208.612 152.68 208.134 148.835 207.297 148.165C206.64 147.6 206.459 147.636 205.563 148.659C205.024 149.258 204.545 150.422 204.545 151.269C204.486 152.433 204.128 151.869 203.111 148.8C202.116 146 201.313 146.106 201.147 149.073C200.635 158.239 199.823 178.849 199.823 184.111V185.248C199.823 187.638 198.877 189.93 197.192 191.625L195.678 193.169C195.194 193.662 194.357 193.426 194.202 192.754C194.023 191.943 193.604 181.219 193.246 169.013C192.588 147.918 192.348 145.201 190.854 145.201C190.077 145.201 189.06 149.117 189.06 151.975C189.06 153.491 188.881 154.726 188.641 154.726C188.342 154.726 187.625 154.232 186.968 153.668C186.31 153.103 185.593 152.61 185.412 152.61C184.754 152.61 183.081 158.36 183.081 160.652C183.081 162.31 182.841 162.91 182.183 163.087C181.645 163.193 180.451 164.216 179.493 165.309C178.365 166.639 177.685 168.291 177.547 170.03L176.743 180.196C176.026 189.509 175.547 193.248 174.949 193.954C174.411 194.553 174.113 196 174.113 197.764C174.113 199.316 173.991 200.585 173.753 200.585C173.574 200.585 171.84 199.951 169.867 199.174C167.732 198.3 166.338 196.222 166.338 193.916V187.427C166.278 179.032 166.159 177.021 165.442 176.456C164.731 175.885 164.182 176.722 163.991 177.613C163.628 179.309 163.01 182.416 162.392 185.84C161.436 190.849 160.538 194.941 160.359 194.941C160.121 194.941 159.523 194.024 158.925 192.896L158.921 192.889C157.778 190.756 157.227 189.728 156.794 189.745C155.79 189.785 154.25 190.44 153.351 190.889C151.322 191.9 148.245 198.48 144.435 218.07C143.419 223.293 142.328 223.29 141.908 217.986C141.309 210.434 140.628 199.965 140.628 193.601C140.568 176.95 140.449 173.846 139.732 173.282C139.253 172.894 138.715 172.682 138.536 172.787C138.357 172.894 137.399 174.376 136.444 176.068C135.268 178.126 134.649 180.454 134.649 182.823V187.922C135.248 194.872 131.204 202.266 129.531 209.922C128.329 215.423 126.815 220.641 126.815 214.516C126.636 206.542 127.175 179.314 126.815 169.013L126.4 155.991C126.284 152.345 124.787 148.879 122.212 146.295C122.087 146.169 122.018 145.998 122.018 145.821Z"/>
</mask>
<path d="M122.018 145.821V132.473C122.018 131.529 120.374 130.147 120.374 131.091C120.374 131.267 119.537 135.43 118.52 140.333C117.564 145.237 116.248 154.48 115.591 160.9L114.93 168.049C114.67 170.859 113.037 173.36 110.568 174.727C108.138 176.095 106.546 178.58 106.319 181.36L105.785 187.922C105.247 193.954 104.768 199.809 104.768 200.903C104.589 205.171 104.23 200.973 102.795 180.125C100.941 153.809 100.882 153.209 99.8653 152.01C98.9087 150.952 98.789 151.692 97.5931 167.603C97.2343 172.434 96.8757 176.456 96.7561 176.527C96.3374 176.809 94.7231 176.068 94.0655 175.257C93.7187 174.832 93.0421 174.94 92.844 175.451L92.8098 175.54C92.5705 176.209 91.7335 178.997 90.9562 181.713L90.9187 181.847C90.6583 182.782 89.2921 182.646 89.2223 181.677C88.9831 178.926 88.5046 168.237 88.0862 157.866C87.548 144.108 87.1295 138.781 86.5913 138.146C86.2524 137.777 86.0609 137.568 85.9234 137.58C85.7458 137.595 85.6575 137.977 85.4554 138.852C84.7975 141.956 83.9007 149.505 83.9007 152.54C83.8409 155.926 83.4224 155.855 81.8079 152.257C81.2101 150.987 80.5524 149.858 80.3132 149.682C80.1338 149.54 79.1771 153.527 78.2802 158.5C77.0488 165.012 73.7536 177.743 72.0508 183C71.5278 184.614 70.7464 184.609 70.7464 182.912C70.7464 177.057 69.4907 139.875 69.1919 137.194C69.0125 135.606 68.5341 134.054 68.1156 133.737C67.3428 133.105 67.3384 133.136 64.6935 151.826L64.6476 152.151C64.2889 154.903 63.7507 157.09 63.5715 157.019C63.3323 156.948 62.6744 155.996 62.0766 154.938C61.4189 153.844 60.7611 152.963 60.5818 152.963C60.3426 152.963 59.4457 155.961 58.5489 159.664C57.7118 163.333 56.5757 166.897 56.0973 167.566C55.6191 168.272 55.2004 169.754 55.2004 170.918C55.2004 172.682 55.021 172.999 54.3035 172.859C53.6459 172.717 53.4067 172.894 53.3469 173.458C53.3469 173.916 52.9882 175.893 52.5696 177.833C52.4619 178.362 51.6874 178.305 51.6583 177.766L51.4335 173.599C51.1943 169.33 50.8357 159.559 50.6563 151.904C50.3572 138.957 49.8192 134.795 48.6831 135.536C47.9656 136.03 45.2152 152.68 43.5409 166.897C43.4294 167.823 43.3189 168.728 43.2109 169.602C42.3971 176.186 41.2228 176.184 40.3122 169.613C38.7575 157.619 38.6979 157.16 37.6216 157.407C37.0834 157.513 36.3659 156.913 35.4691 155.608C34.5825 154.257 33.7038 154.561 33.4418 156.156C33.1737 157.788 32.8266 160.112 32.4794 162.663C31.762 167.531 30.9847 171.8 30.7455 172.188C30.4465 172.576 30.0878 170.565 29.8486 167.426C29.6271 164.649 29.0981 159.392 28.6887 155.325L28.5929 154.373C28.1147 150.211 27.6961 143.05 27.6961 138.464C27.6961 133.02 26.9633 126.113 27.2136 120.675L28.8919 84.2083C28.8919 81.5979 29.4898 83.6439 30.9249 91.1225C31.762 95.4262 32.4794 100.506 32.4794 102.411V103.491C32.4794 104.983 33.2778 106.361 34.5722 107.103C35.7083 107.738 36.7248 108.232 36.904 108.126C37.0236 108.055 37.8008 105.656 38.6979 102.799C40.1328 97.9662 40.2524 96.9079 40.2524 86.9245V78.1102C40.2524 77.2817 41.1532 76.7673 41.8668 77.1883C42.0304 77.2881 42.1749 77.3525 42.3045 77.4101L42.3045 77.4102C42.3736 77.4409 42.4384 77.4698 42.4996 77.5011C43.4332 77.9784 43.5267 79.0277 45.0518 96.1432L45.0518 96.1434L45.052 96.1451C45.2261 98.099 45.4189 100.262 45.6337 102.658C46.5305 112.782 47.009 116.169 47.6068 116.522C47.6345 116.538 47.6612 116.555 47.6871 116.571C47.7796 116.629 47.8605 116.68 47.9331 116.676C48.4437 116.649 48.545 113.918 49.3584 91.9902L49.3584 91.9901L49.3591 91.97C49.4444 89.6706 49.5375 87.1602 49.6398 84.42C49.8544 77.0789 50.789 77.0399 51.6599 84.3323C51.7429 85.0273 51.8271 85.7401 51.912 86.466L53.0311 95.8627C53.3129 98.2285 54.3947 100.427 56.0973 102.094C58.7283 104.598 58.7881 104.739 58.7881 107.561C58.7881 109.431 59.0869 110.736 59.5654 111.124C60.3426 111.724 60.522 111.654 62.1364 110.066C62.8546 109.324 64.1093 109.679 64.3337 110.686L65.1858 114.511C65.9631 117.897 66.8001 121.143 67.0393 121.743C67.2786 122.342 68.1156 114.017 68.8929 102.517C69.6702 91.3694 70.5072 80.3984 70.6866 78.176C70.7611 77.3338 71.9459 77.2182 72.1818 78.0301L72.4804 79.0579C73.3772 82.2328 74.0351 86.0074 74.2143 89.6409L74.3499 92.8191C74.4156 94.36 75.1597 95.7928 76.3825 96.7327C77.6557 97.7115 78.4071 99.2222 78.4196 100.828L78.4596 105.974C78.5792 111.865 78.7587 113.735 79.3565 114.123C80.074 114.511 80.3132 114.264 81.1503 112.641C81.6885 111.583 82.1069 109.996 82.1667 109.149C82.1667 108.232 82.8842 109.854 83.8409 113.276L84.5747 115.842C84.7731 116.535 85.7795 116.461 85.8738 115.745C86.113 113.982 86.8305 106.15 87.4883 98.2836C88.2058 90.417 88.9233 82.9736 89.1625 81.7037C89.5809 79.446 89.6407 79.4812 91.315 86.5718L92.5693 91.7773C92.8427 92.9122 93.9231 93.6621 95.0819 93.5213C96.1359 93.4083 97.0551 94.2341 97.0551 95.2941V102.623C97.0551 110.066 97.2343 112.042 97.8922 112.606C98.7292 113.241 98.789 113.241 99.0879 112.394C99.2673 111.9 100.104 108.796 100.941 105.445C102.317 99.8006 102.436 98.46 102.436 86.078C102.436 78.7404 102.616 72.8492 102.795 72.9551C102.974 73.0609 104.29 78.8463 105.785 85.7957C107.22 92.7452 108.535 98.46 108.655 98.5306C108.774 98.6012 109.611 97.0489 110.568 95.0382C112.063 91.8281 112.302 91.5458 112.721 92.4629C113.139 93.4155 120.374 127.14 120.374 128.163C120.374 129.135 122.018 127.805 122.018 126.833V111.403C122.018 111.279 122.053 111.156 122.121 111.052C122.151 111.006 122.182 110.959 122.212 110.913C124.833 106.921 126.304 102.285 126.463 97.513L126.815 86.9951C127.11 78.9709 127.444 67.8526 127.686 59.7664L127.739 57.993L127.74 57.9562C127.773 56.8552 127.804 55.8281 127.833 54.8935C128.132 43.1817 128.371 40.4654 129.088 39.7599C129.829 39.0504 130.81 39.615 131.361 40.4798C131.783 41.1409 132.296 41.999 132.796 42.8995C134.012 45.0976 134.649 47.5685 134.649 50.0805V62.231C134.649 75.5655 134.769 78.3877 135.546 79.199C136.503 80.3279 138.176 80.857 138.536 80.1867C138.655 79.9752 139.613 71.5792 140.628 61.596C141.645 51.6128 142.661 43.3581 142.782 43.2875C142.901 43.217 143.02 43.3933 143.02 43.7108C143.02 44.0636 143.857 48.6848 144.874 54.0116L145.686 58.4199C146.325 61.8858 148.026 65.0671 150.554 67.5225C153.962 70.8738 154.381 71.5088 154.381 73.1315C154.381 74.8248 155.875 77.4705 156.771 77.4705C157.49 77.4705 158.506 75.8831 158.685 74.4719C158.865 73.2373 159.104 73.5901 160.719 77.1178C162.511 80.9629 162.632 81.492 162.632 87.7713C162.692 92.9569 162.871 94.5796 163.588 95.3557C163.918 95.7181 164.521 95.4991 164.541 95.0096L164.546 94.8971C164.546 93.1637 165.486 81.2328 166.092 74.4694C166.368 71.3799 167.213 71.2624 168.132 74.2251C168.849 76.6944 169.688 78.9873 169.867 79.3755C170.405 80.222 172.557 70.2741 172.199 68.5455C171.78 66.429 172.617 67.4872 175.247 72.4259C176.857 75.4605 177.699 78.8434 177.699 82.2785V88.5473C177.699 96.4845 177.939 100.294 178.416 100.929C179.195 101.917 179.972 102.058 180.451 101.282C181.108 100.33 181.585 100.718 183.32 103.399C184.695 105.551 185.173 105.974 185.831 105.656C186.37 105.374 186.668 104.457 186.668 102.94C186.668 99.9769 187.446 100.4 188.762 104.104C189.36 105.656 190.017 107.138 190.256 107.42C190.494 107.667 190.854 105.692 191.092 103.011C191.207 101.715 191.361 99.8895 191.525 97.9554L191.654 96.4348C191.792 94.7929 191.931 93.1515 192.05 91.7575C192.408 88.2651 193.065 80.7159 193.544 75.0011C193.939 70.8085 194.334 67.1475 194.564 65.4529C194.654 64.7845 195.038 64.6609 195.038 65.3354C195.038 65.8998 196.115 71.4382 197.43 77.6116C199.763 88.4768 199.823 89.2528 199.823 99.483C199.882 107.985 200.001 110.242 200.719 110.736C201.498 111.371 201.557 111.371 202.155 110.666C202.513 110.278 202.813 109.29 202.813 108.479C202.813 107.696 202.813 107.337 203.105 107.206C203.355 107.094 203.814 107.147 204.664 107.244L204.667 107.244C206.28 107.42 206.518 107.314 207.357 106.221C207.836 105.551 208.193 103.963 208.193 102.658C208.193 100.577 208.312 100.365 209.27 100.577C209.809 100.718 211.003 101 211.96 101.176C212.856 101.353 213.576 101.776 213.576 102.094C213.576 102.446 213.874 105.163 214.233 108.161C214.831 113.312 215.549 115.569 216.564 115.569C217.162 115.569 218.358 111.124 218.418 108.796C218.435 108.259 219.145 108.081 219.414 108.546L220.212 109.925C221.646 112.359 221.946 113.488 221.946 116.098C221.946 119.591 222.483 120.578 223.979 119.838C224.458 119.591 224.935 118.885 225.056 118.285C225.235 117.227 225.294 117.262 226.371 119.097C227.208 120.577 227.79 122.297 227.659 123.993L226.934 133.4C226.801 135.121 225.799 137.34 224.277 136.523C223.202 135.959 223.142 135.959 223.142 136.77C223.142 137.229 222.483 142.485 221.646 148.376C220.81 154.303 220.152 159.453 220.152 159.806C220.152 160.278 219.734 160.134 219.549 159.7C218.528 157.308 215.368 148.974 215.368 148.517C215.368 148.376 215.249 148.341 215.129 148.412C215.01 148.482 213.874 154.02 212.678 160.723C211.422 167.426 210.285 173.14 210.107 173.423C209.928 173.705 209.568 170.212 209.33 165.661C208.612 152.68 208.134 148.835 207.297 148.165C206.64 147.6 206.459 147.636 205.563 148.659C205.024 149.258 204.545 150.422 204.545 151.269C204.486 152.433 204.128 151.869 203.111 148.8C202.116 146 201.313 146.106 201.147 149.073C200.635 158.239 199.823 178.849 199.823 184.111V185.248C199.823 187.638 198.877 189.93 197.192 191.625L195.678 193.169C195.194 193.662 194.357 193.426 194.202 192.754C194.023 191.943 193.604 181.219 193.246 169.013C192.588 147.918 192.348 145.201 190.854 145.201C190.077 145.201 189.06 149.117 189.06 151.975C189.06 153.491 188.881 154.726 188.641 154.726C188.342 154.726 187.625 154.232 186.968 153.668C186.31 153.103 185.593 152.61 185.412 152.61C184.754 152.61 183.081 158.36 183.081 160.652C183.081 162.31 182.841 162.91 182.183 163.087C181.645 163.193 180.451 164.216 179.493 165.309C178.365 166.639 177.685 168.291 177.547 170.03L176.743 180.196C176.026 189.509 175.547 193.248 174.949 193.954C174.411 194.553 174.113 196 174.113 197.764C174.113 199.316 173.991 200.585 173.753 200.585C173.574 200.585 171.84 199.951 169.867 199.174C167.732 198.3 166.338 196.222 166.338 193.916V187.427C166.278 179.032 166.159 177.021 165.442 176.456C164.731 175.885 164.182 176.722 163.991 177.613C163.628 179.309 163.01 182.416 162.392 185.84C161.436 190.849 160.538 194.941 160.359 194.941C160.121 194.941 159.523 194.024 158.925 192.896L158.921 192.889C157.778 190.756 157.227 189.728 156.794 189.745C155.79 189.785 154.25 190.44 153.351 190.889C151.322 191.9 148.245 198.48 144.435 218.07C143.419 223.293 142.328 223.29 141.908 217.986C141.309 210.434 140.628 199.965 140.628 193.601C140.568 176.95 140.449 173.846 139.732 173.282C139.253 172.894 138.715 172.682 138.536 172.787C138.357 172.894 137.399 174.376 136.444 176.068C135.268 178.126 134.649 180.454 134.649 182.823V187.922C135.248 194.872 131.204 202.266 129.531 209.922C128.329 215.423 126.815 220.641 126.815 214.516C126.636 206.542 127.175 179.314 126.815 169.013L126.4 155.991C126.284 152.345 124.787 148.879 122.212 146.295C122.087 146.169 122.018 145.998 122.018 145.821Z" fill="#71717A"/>
<path d="M122.018 145.821V132.473C122.018 131.529 120.374 130.147 120.374 131.091C120.374 131.267 119.537 135.43 118.52 140.333C117.564 145.237 116.248 154.48 115.591 160.9L114.93 168.049C114.67 170.859 113.037 173.36 110.568 174.727C108.138 176.095 106.546 178.58 106.319 181.36L105.785 187.922C105.247 193.954 104.768 199.809 104.768 200.903C104.589 205.171 104.23 200.973 102.795 180.125C100.941 153.809 100.882 153.209 99.8653 152.01C98.9087 150.952 98.789 151.692 97.5931 167.603C97.2343 172.434 96.8757 176.456 96.7561 176.527C96.3374 176.809 94.7231 176.068 94.0655 175.257C93.7187 174.832 93.0421 174.94 92.844 175.451L92.8098 175.54C92.5705 176.209 91.7335 178.997 90.9562 181.713L90.9187 181.847C90.6583 182.782 89.2921 182.646 89.2223 181.677C88.9831 178.926 88.5046 168.237 88.0862 157.866C87.548 144.108 87.1295 138.781 86.5913 138.146C86.2524 137.777 86.0609 137.568 85.9234 137.58C85.7458 137.595 85.6575 137.977 85.4554 138.852C84.7975 141.956 83.9007 149.505 83.9007 152.54C83.8409 155.926 83.4224 155.855 81.8079 152.257C81.2101 150.987 80.5524 149.858 80.3132 149.682C80.1338 149.54 79.1771 153.527 78.2802 158.5C77.0488 165.012 73.7536 177.743 72.0508 183C71.5278 184.614 70.7464 184.609 70.7464 182.912C70.7464 177.057 69.4907 139.875 69.1919 137.194C69.0125 135.606 68.5341 134.054 68.1156 133.737C67.3428 133.105 67.3384 133.136 64.6935 151.826L64.6476 152.151C64.2889 154.903 63.7507 157.09 63.5715 157.019C63.3323 156.948 62.6744 155.996 62.0766 154.938C61.4189 153.844 60.7611 152.963 60.5818 152.963C60.3426 152.963 59.4457 155.961 58.5489 159.664C57.7118 163.333 56.5757 166.897 56.0973 167.566C55.6191 168.272 55.2004 169.754 55.2004 170.918C55.2004 172.682 55.021 172.999 54.3035 172.859C53.6459 172.717 53.4067 172.894 53.3469 173.458C53.3469 173.916 52.9882 175.893 52.5696 177.833C52.4619 178.362 51.6874 178.305 51.6583 177.766L51.4335 173.599C51.1943 169.33 50.8357 159.559 50.6563 151.904C50.3572 138.957 49.8192 134.795 48.6831 135.536C47.9656 136.03 45.2152 152.68 43.5409 166.897C43.4294 167.823 43.3189 168.728 43.2109 169.602C42.3971 176.186 41.2228 176.184 40.3122 169.613C38.7575 157.619 38.6979 157.16 37.6216 157.407C37.0834 157.513 36.3659 156.913 35.4691 155.608C34.5825 154.257 33.7038 154.561 33.4418 156.156C33.1737 157.788 32.8266 160.112 32.4794 162.663C31.762 167.531 30.9847 171.8 30.7455 172.188C30.4465 172.576 30.0878 170.565 29.8486 167.426C29.6271 164.649 29.0981 159.392 28.6887 155.325L28.5929 154.373C28.1147 150.211 27.6961 143.05 27.6961 138.464C27.6961 133.02 26.9633 126.113 27.2136 120.675L28.8919 84.2083C28.8919 81.5979 29.4898 83.6439 30.9249 91.1225C31.762 95.4262 32.4794 100.506 32.4794 102.411V103.491C32.4794 104.983 33.2778 106.361 34.5722 107.103C35.7083 107.738 36.7248 108.232 36.904 108.126C37.0236 108.055 37.8008 105.656 38.6979 102.799C40.1328 97.9662 40.2524 96.9079 40.2524 86.9245V78.1102C40.2524 77.2817 41.1532 76.7673 41.8668 77.1883C42.0304 77.2881 42.1749 77.3525 42.3045 77.4101L42.3045 77.4102C42.3736 77.4409 42.4384 77.4698 42.4996 77.5011C43.4332 77.9784 43.5267 79.0277 45.0518 96.1432L45.0518 96.1434L45.052 96.1451C45.2261 98.099 45.4189 100.262 45.6337 102.658C46.5305 112.782 47.009 116.169 47.6068 116.522C47.6345 116.538 47.6612 116.555 47.6871 116.571C47.7796 116.629 47.8605 116.68 47.9331 116.676C48.4437 116.649 48.545 113.918 49.3584 91.9902L49.3584 91.9901L49.3591 91.97C49.4444 89.6706 49.5375 87.1602 49.6398 84.42C49.8544 77.0789 50.789 77.0399 51.6599 84.3323C51.7429 85.0273 51.8271 85.7401 51.912 86.466L53.0311 95.8627C53.3129 98.2285 54.3947 100.427 56.0973 102.094C58.7283 104.598 58.7881 104.739 58.7881 107.561C58.7881 109.431 59.0869 110.736 59.5654 111.124C60.3426 111.724 60.522 111.654 62.1364 110.066C62.8546 109.324 64.1093 109.679 64.3337 110.686L65.1858 114.511C65.9631 117.897 66.8001 121.143 67.0393 121.743C67.2786 122.342 68.1156 114.017 68.8929 102.517C69.6702 91.3694 70.5072 80.3984 70.6866 78.176C70.7611 77.3338 71.9459 77.2182 72.1818 78.0301L72.4804 79.0579C73.3772 82.2328 74.0351 86.0074 74.2143 89.6409L74.3499 92.8191C74.4156 94.36 75.1597 95.7928 76.3825 96.7327C77.6557 97.7115 78.4071 99.2222 78.4196 100.828L78.4596 105.974C78.5792 111.865 78.7587 113.735 79.3565 114.123C80.074 114.511 80.3132 114.264 81.1503 112.641C81.6885 111.583 82.1069 109.996 82.1667 109.149C82.1667 108.232 82.8842 109.854 83.8409 113.276L84.5747 115.842C84.7731 116.535 85.7795 116.461 85.8738 115.745C86.113 113.982 86.8305 106.15 87.4883 98.2836C88.2058 90.417 88.9233 82.9736 89.1625 81.7037C89.5809 79.446 89.6407 79.4812 91.315 86.5718L92.5693 91.7773C92.8427 92.9122 93.9231 93.6621 95.0819 93.5213C96.1359 93.4083 97.0551 94.2341 97.0551 95.2941V102.623C97.0551 110.066 97.2343 112.042 97.8922 112.606C98.7292 113.241 98.789 113.241 99.0879 112.394C99.2673 111.9 100.104 108.796 100.941 105.445C102.317 99.8006 102.436 98.46 102.436 86.078C102.436 78.7404 102.616 72.8492 102.795 72.9551C102.974 73.0609 104.29 78.8463 105.785 85.7957C107.22 92.7452 108.535 98.46 108.655 98.5306C108.774 98.6012 109.611 97.0489 110.568 95.0382C112.063 91.8281 112.302 91.5458 112.721 92.4629C113.139 93.4155 120.374 127.14 120.374 128.163C120.374 129.135 122.018 127.805 122.018 126.833V111.403C122.018 111.279 122.053 111.156 122.121 111.052C122.151 111.006 122.182 110.959 122.212 110.913C124.833 106.921 126.304 102.285 126.463 97.513L126.815 86.9951C127.11 78.9709 127.444 67.8526 127.686 59.7664L127.739 57.993L127.74 57.9562C127.773 56.8552 127.804 55.8281 127.833 54.8935C128.132 43.1817 128.371 40.4654 129.088 39.7599C129.829 39.0504 130.81 39.615 131.361 40.4798C131.783 41.1409 132.296 41.999 132.796 42.8995C134.012 45.0976 134.649 47.5685 134.649 50.0805V62.231C134.649 75.5655 134.769 78.3877 135.546 79.199C136.503 80.3279 138.176 80.857 138.536 80.1867C138.655 79.9752 139.613 71.5792 140.628 61.596C141.645 51.6128 142.661 43.3581 142.782 43.2875C142.901 43.217 143.02 43.3933 143.02 43.7108C143.02 44.0636 143.857 48.6848 144.874 54.0116L145.686 58.4199C146.325 61.8858 148.026 65.0671 150.554 67.5225C153.962 70.8738 154.381 71.5088 154.381 73.1315C154.381 74.8248 155.875 77.4705 156.771 77.4705C157.49 77.4705 158.506 75.8831 158.685 74.4719C158.865 73.2373 159.104 73.5901 160.719 77.1178C162.511 80.9629 162.632 81.492 162.632 87.7713C162.692 92.9569 162.871 94.5796 163.588 95.3557C163.918 95.7181 164.521 95.4991 164.541 95.0096L164.546 94.8971C164.546 93.1637 165.486 81.2328 166.092 74.4694C166.368 71.3799 167.213 71.2624 168.132 74.2251C168.849 76.6944 169.688 78.9873 169.867 79.3755C170.405 80.222 172.557 70.2741 172.199 68.5455C171.78 66.429 172.617 67.4872 175.247 72.4259C176.857 75.4605 177.699 78.8434 177.699 82.2785V88.5473C177.699 96.4845 177.939 100.294 178.416 100.929C179.195 101.917 179.972 102.058 180.451 101.282C181.108 100.33 181.585 100.718 183.32 103.399C184.695 105.551 185.173 105.974 185.831 105.656C186.37 105.374 186.668 104.457 186.668 102.94C186.668 99.9769 187.446 100.4 188.762 104.104C189.36 105.656 190.017 107.138 190.256 107.42C190.494 107.667 190.854 105.692 191.092 103.011C191.207 101.715 191.361 99.8895 191.525 97.9554L191.654 96.4348C191.792 94.7929 191.931 93.1515 192.05 91.7575C192.408 88.2651 193.065 80.7159 193.544 75.0011C193.939 70.8085 194.334 67.1475 194.564 65.4529C194.654 64.7845 195.038 64.6609 195.038 65.3354C195.038 65.8998 196.115 71.4382 197.43 77.6116C199.763 88.4768 199.823 89.2528 199.823 99.483C199.882 107.985 200.001 110.242 200.719 110.736C201.498 111.371 201.557 111.371 202.155 110.666C202.513 110.278 202.813 109.29 202.813 108.479C202.813 107.696 202.813 107.337 203.105 107.206C203.355 107.094 203.814 107.147 204.664 107.244L204.667 107.244C206.28 107.42 206.518 107.314 207.357 106.221C207.836 105.551 208.193 103.963 208.193 102.658C208.193 100.577 208.312 100.365 209.27 100.577C209.809 100.718 211.003 101 211.96 101.176C212.856 101.353 213.576 101.776 213.576 102.094C213.576 102.446 213.874 105.163 214.233 108.161C214.831 113.312 215.549 115.569 216.564 115.569C217.162 115.569 218.358 111.124 218.418 108.796C218.435 108.259 219.145 108.081 219.414 108.546L220.212 109.925C221.646 112.359 221.946 113.488 221.946 116.098C221.946 119.591 222.483 120.578 223.979 119.838C224.458 119.591 224.935 118.885 225.056 118.285C225.235 117.227 225.294 117.262 226.371 119.097C227.208 120.577 227.79 122.297 227.659 123.993L226.934 133.4C226.801 135.121 225.799 137.34 224.277 136.523C223.202 135.959 223.142 135.959 223.142 136.77C223.142 137.229 222.483 142.485 221.646 148.376C220.81 154.303 220.152 159.453 220.152 159.806C220.152 160.278 219.734 160.134 219.549 159.7C218.528 157.308 215.368 148.974 215.368 148.517C215.368 148.376 215.249 148.341 215.129 148.412C215.01 148.482 213.874 154.02 212.678 160.723C211.422 167.426 210.285 173.14 210.107 173.423C209.928 173.705 209.568 170.212 209.33 165.661C208.612 152.68 208.134 148.835 207.297 148.165C206.64 147.6 206.459 147.636 205.563 148.659C205.024 149.258 204.545 150.422 204.545 151.269C204.486 152.433 204.128 151.869 203.111 148.8C202.116 146 201.313 146.106 201.147 149.073C200.635 158.239 199.823 178.849 199.823 184.111V185.248C199.823 187.638 198.877 189.93 197.192 191.625L195.678 193.169C195.194 193.662 194.357 193.426 194.202 192.754C194.023 191.943 193.604 181.219 193.246 169.013C192.588 147.918 192.348 145.201 190.854 145.201C190.077 145.201 189.06 149.117 189.06 151.975C189.06 153.491 188.881 154.726 188.641 154.726C188.342 154.726 187.625 154.232 186.968 153.668C186.31 153.103 185.593 152.61 185.412 152.61C184.754 152.61 183.081 158.36 183.081 160.652C183.081 162.31 182.841 162.91 182.183 163.087C181.645 163.193 180.451 164.216 179.493 165.309C178.365 166.639 177.685 168.291 177.547 170.03L176.743 180.196C176.026 189.509 175.547 193.248 174.949 193.954C174.411 194.553 174.113 196 174.113 197.764C174.113 199.316 173.991 200.585 173.753 200.585C173.574 200.585 171.84 199.951 169.867 199.174C167.732 198.3 166.338 196.222 166.338 193.916V187.427C166.278 179.032 166.159 177.021 165.442 176.456C164.731 175.885 164.182 176.722 163.991 177.613C163.628 179.309 163.01 182.416 162.392 185.84C161.436 190.849 160.538 194.941 160.359 194.941C160.121 194.941 159.523 194.024 158.925 192.896L158.921 192.889C157.778 190.756 157.227 189.728 156.794 189.745C155.79 189.785 154.25 190.44 153.351 190.889C151.322 191.9 148.245 198.48 144.435 218.07C143.419 223.293 142.328 223.29 141.908 217.986C141.309 210.434 140.628 199.965 140.628 193.601C140.568 176.95 140.449 173.846 139.732 173.282C139.253 172.894 138.715 172.682 138.536 172.787C138.357 172.894 137.399 174.376 136.444 176.068C135.268 178.126 134.649 180.454 134.649 182.823V187.922C135.248 194.872 131.204 202.266 129.531 209.922C128.329 215.423 126.815 220.641 126.815 214.516C126.636 206.542 127.175 179.314 126.815 169.013L126.4 155.991C126.284 152.345 124.787 148.879 122.212 146.295C122.087 146.169 122.018 145.998 122.018 145.821Z" stroke="#A1A1AA" stroke-width="2.06316" mask="url(#path-6-outside-1_17_57)"/>
<path d="M121.85 135.649V130.946C121.85 130.228 120.205 129.061 120.205 129.779C120.205 129.85 119.367 131.525 118.35 133.499C117.392 135.473 116.076 139.194 115.418 141.779L115.066 143.309C114.622 145.241 112.808 146.807 110.391 147.345C108.017 147.883 106.255 149.443 105.869 151.35L105.604 152.657C105.066 155.086 104.587 157.443 104.587 157.883C104.407 159.601 104.048 157.911 102.612 149.519C100.757 138.924 100.697 138.683 99.6801 138.2C98.7227 137.774 98.603 138.072 97.4061 144.477C97.047 146.422 96.6881 148.042 96.5684 148.07C96.1494 148.184 94.5338 147.885 93.8757 147.559L93.7713 147.507C93.3907 147.32 92.8894 147.392 92.619 147.672C92.3796 147.942 91.5419 149.064 90.764 150.158L90.6189 150.367C90.2284 150.931 89.1425 150.778 89.0287 150.143C88.7893 149.036 88.3105 144.733 87.8917 140.558C87.353 135.019 86.9343 132.875 86.3956 132.619C86.0564 132.47 85.8648 132.386 85.7272 132.391C85.5494 132.397 85.4611 132.551 85.2588 132.903C84.6005 134.153 83.7029 137.192 83.7029 138.413C83.643 139.777 83.2243 139.748 81.6085 138.3C81.0102 137.788 80.352 137.334 80.1126 137.263C79.933 137.206 78.9756 138.811 78.078 140.813C76.5223 144.122 71.6753 151.421 70.8974 151.62C70.658 151.663 70.5383 151.223 70.5383 150.64C70.5383 148.283 69.2816 133.315 68.9826 132.236C68.803 131.596 68.3242 130.972 67.9054 130.844C67.132 130.59 67.1275 130.602 64.4806 138.126L64.4346 138.257C64.0757 139.365 63.537 140.245 63.3577 140.216C63.1183 140.188 62.4599 139.805 61.8616 139.379C61.2034 138.939 60.5451 138.584 60.3657 138.584C60.1263 138.584 59.2287 139.791 58.3311 141.282C57.4934 142.759 56.3564 144.193 55.8776 144.463C55.399 144.747 54.9801 145.343 54.9801 145.812C54.9801 146.522 54.8005 146.65 54.0825 146.593C53.3451 146.529 53.0654 147.124 52.8125 147.669C52.6814 147.951 52.5194 148.275 52.3472 148.596C52.1632 148.959 51.4777 148.886 51.4256 148.497L51.2102 146.891C50.9708 145.173 50.6119 141.239 50.4323 138.157C50.1331 132.946 49.5946 131.27 48.4576 131.568C47.7396 131.767 44.987 138.47 43.3114 144.193C43.201 144.562 43.0918 144.922 42.9849 145.27C42.1534 147.977 41.0062 147.975 40.0802 145.287C38.5242 140.458 38.4646 140.274 37.3874 140.373C36.8488 140.416 36.1308 140.174 35.2332 139.649C34.2725 139.06 33.409 139.339 33.0519 140.251C32.8107 140.867 32.5259 141.647 32.2412 142.489C31.5232 144.448 30.7453 146.167 30.5059 146.323C30.2066 146.48 29.8477 145.67 29.6083 144.406C29.3866 143.288 28.8572 141.172 28.4475 139.535L28.3516 139.151C27.873 137.476 27.4541 134.593 27.4541 132.747C27.4541 130.564 26.7414 127.594 26.9902 125.42L28.6509 110.905C28.6509 109.854 29.2492 110.678 30.6854 113.689C31.5232 115.421 32.2412 117.466 32.2412 118.233C32.2412 119.067 32.944 119.801 33.968 120.037L34.3356 120.122C35.4726 120.378 36.4899 120.576 36.6692 120.534C36.7889 120.505 37.5668 119.54 38.4646 118.389C39.9006 116.444 40.0203 116.018 40.0203 111.999V109.014C40.0203 108.358 40.8319 107.888 41.6359 108.079C41.7997 108.119 41.9444 108.145 42.074 108.169C42.1431 108.181 42.2081 108.193 42.2693 108.205C43.2035 108.397 43.2971 108.82 44.8235 115.71L44.8238 115.711C44.998 116.498 45.1909 117.368 45.4058 118.332C46.3034 122.408 46.7822 123.772 47.3805 123.914C47.4082 123.92 47.4349 123.927 47.4608 123.933C47.5534 123.957 47.6344 123.977 47.7071 123.976C48.218 123.965 48.3194 122.866 49.1334 114.038C49.219 113.11 49.3124 112.097 49.415 110.99C49.6311 108.018 50.5462 107.963 51.4093 110.863C51.5012 111.172 51.5947 111.49 51.689 111.814L52.5805 114.825C53.0014 116.247 54.2094 117.448 55.8776 118.105C58.5107 119.114 58.5706 119.17 58.5706 120.307C58.5706 121.059 58.8696 121.585 59.3484 121.741C60.1263 121.982 60.3058 121.954 61.9214 121.315C62.8241 120.94 63.9443 121.246 64.3502 121.979L64.9733 123.104C65.7512 124.467 66.5889 125.774 66.8283 126.015C67.0677 126.257 67.9054 122.905 68.6833 118.276C69.4612 113.788 70.2989 109.372 70.4784 108.477C70.5986 107.93 71.5311 107.804 71.8801 108.287L72.2736 108.832C73.1712 110.11 73.8295 111.63 74.0089 113.092L74.0796 113.759C74.1829 114.733 74.9852 115.578 76.1498 115.938C77.3893 116.322 78.2108 117.25 78.231 118.291L78.2576 119.667C78.3773 122.039 78.5568 122.792 79.1551 122.948C79.8732 123.104 80.1126 123.005 80.9503 122.351V122.351C81.8702 121.624 82.4637 121.039 83.178 121.969C83.3246 122.16 83.4803 122.373 83.643 122.607L84.4386 123.726C84.7338 124.141 85.5269 124.061 85.6776 123.601C85.917 122.891 86.635 119.738 87.2934 116.572C88.0114 113.405 88.7294 110.408 88.9688 109.897C89.3876 108.988 89.4474 109.002 91.1231 111.857L91.9947 113.312C92.5158 114.182 93.6654 114.714 94.8929 114.654C95.9655 114.608 96.8676 115.275 96.8676 116.114V118.318C96.8676 121.315 97.047 122.11 97.7054 122.337C98.5431 122.593 98.603 122.593 98.902 122.252C99.0816 122.053 99.9193 120.804 100.757 119.454C102.133 117.182 102.253 116.643 102.253 111.658C102.253 108.704 102.433 106.332 102.612 106.375C102.792 106.418 104.108 108.747 105.604 111.544C107.04 114.342 108.357 116.643 108.476 116.671C108.596 116.699 109.434 116.074 110.391 115.265C111.887 113.973 112.127 113.859 112.545 114.228C112.964 114.612 120.205 128.188 120.205 128.6C120.205 129.326 121.85 128.186 121.85 127.46V121.88C121.85 121.814 121.888 121.752 121.954 121.712C121.984 121.693 122.014 121.674 122.044 121.656C124.596 120.092 126.175 117.754 126.385 115.227L126.651 112.027C126.946 108.797 127.281 104.321 127.523 101.066C127.541 100.82 127.559 100.582 127.576 100.352L127.578 100.327C127.61 99.8875 127.641 99.4774 127.669 99.104C127.969 94.3892 128.208 93.2957 128.926 93.0117C129.405 92.827 130.004 92.7418 130.302 92.7986C130.543 92.8697 131.618 93.5371 132.636 94.2756C133.82 95.136 134.492 96.3418 134.492 97.6043V102.058C134.492 107.426 134.611 108.562 135.388 108.889C136.347 109.343 138.021 109.556 138.381 109.286C138.5 109.201 139.459 105.821 140.475 101.802C141.493 97.7833 142.509 94.4602 142.63 94.4318C142.75 94.4034 142.869 94.4744 142.869 94.6022C142.869 94.7442 143.706 96.6046 144.724 98.749L145.055 99.4709C145.995 101.523 147.913 103.213 150.409 104.188C153.819 105.537 154.239 105.793 154.239 106.446C154.239 107.128 155.734 108.193 156.631 108.193C157.351 108.193 158.367 107.554 158.546 106.986C158.727 106.489 158.965 106.631 160.582 108.051C162.375 109.599 162.497 109.812 162.497 112.34C162.556 114.427 162.735 115.08 163.453 115.393L163.701 115.503C164.004 115.637 164.384 115.48 164.411 115.208C164.411 114.53 165.299 109.979 165.906 107.224C166.217 105.811 167.054 105.659 168.001 106.886C169.039 108.324 170.578 108.468 171.362 106.936C171.864 105.954 172.237 104.922 172.071 104.6C171.651 103.748 172.488 104.174 175.121 106.162C176.69 107.351 177.575 108.986 177.575 110.693V112.652C177.575 115.847 177.815 117.381 178.293 117.637C179.072 118.034 179.85 118.091 180.329 117.779C180.987 117.395 181.464 117.551 183.2 118.631C184.576 119.497 185.055 119.667 185.713 119.54C186.252 119.426 186.551 119.057 186.551 118.446C186.551 117.253 187.33 117.424 188.646 118.915C189.245 119.54 189.903 120.136 190.142 120.25C190.38 120.349 190.74 119.554 190.979 118.475C191.093 117.953 191.248 117.218 191.412 116.439L191.541 115.827C191.679 115.166 191.818 114.506 191.937 113.944C192.295 112.538 192.953 109.499 193.433 107.199C193.818 105.555 194.203 104.114 194.435 103.41C194.537 103.098 194.928 102.985 194.928 103.308C194.928 103.535 196.006 105.764 197.322 108.25C199.656 112.624 199.716 112.936 199.716 117.054C199.776 120.477 199.895 121.386 200.613 121.585C201.392 121.84 201.452 121.84 202.05 121.556C202.408 121.4 202.709 121.002 202.709 120.676C202.709 120.361 202.709 120.216 203.001 120.163C203.251 120.118 203.71 120.14 204.561 120.179L204.564 120.179C206.178 120.25 206.417 120.207 207.256 119.767C207.735 119.497 208.093 118.858 208.093 118.333C208.093 117.495 208.213 117.409 209.171 117.495C209.71 117.551 210.905 117.665 211.863 117.736C212.76 117.807 213.48 117.977 213.48 118.105C213.48 118.247 213.778 119.341 214.138 120.548C214.736 122.621 215.454 123.53 216.47 123.53C217.069 123.53 218.266 121.741 218.326 120.804C218.35 120.498 218.814 120.349 219.107 120.552L220.121 121.258C221.557 122.238 221.857 122.692 221.857 123.743C221.857 125.149 222.394 125.547 223.891 125.249C224.37 125.149 224.848 124.865 224.969 124.624C225.148 124.198 225.208 124.212 226.285 124.95C227.118 125.543 227.668 126.432 227.501 127.302L227.016 129.838C226.781 131.06 225.714 132.295 224.19 131.966C223.114 131.738 223.054 131.738 223.054 132.065C223.054 132.25 222.394 134.366 221.557 136.737C220.72 139.123 220.062 141.197 220.062 141.339C220.062 141.587 219.643 141.471 219.44 141.28C218.401 140.296 215.273 136.977 215.273 136.794C215.273 136.737 215.154 136.723 215.035 136.752C214.915 136.78 213.778 139.009 212.581 141.708C211.324 144.406 210.187 146.707 210.008 146.82C209.829 146.934 209.469 145.528 209.231 143.696C208.513 138.47 208.034 136.922 207.196 136.652C206.538 136.425 206.357 136.439 205.461 136.851C204.922 137.092 204.442 137.561 204.442 137.902C204.383 138.37 204.025 138.143 203.007 136.908C202.229 136.027 201.512 135.275 201.392 135.232C201.092 135.161 199.716 148.368 199.716 151.123C199.716 152.327 198.857 153.431 197.488 153.984L197.083 154.148L195.228 154.909C194.806 155.082 194.286 154.941 194.091 154.602C193.912 154.276 193.492 149.959 193.134 145.045C192.476 136.553 192.236 135.459 190.74 135.459C189.963 135.459 188.945 137.036 188.945 138.186C188.945 138.797 188.766 139.293 188.525 139.293C188.227 139.293 187.509 139.095 186.851 138.868C186.193 138.64 185.475 138.442 185.294 138.442C184.636 138.442 182.961 140.756 182.961 141.679C182.961 142.347 182.721 142.588 182.063 142.66C181.524 142.702 180.329 143.114 179.37 143.554C178.27 144.076 177.522 144.952 177.326 145.946L176.618 149.547C175.901 153.296 175.421 154.802 174.823 155.086C174.284 155.327 173.986 155.909 173.986 156.619C173.986 157.244 173.864 157.755 173.626 157.755C173.447 157.755 171.711 157.5 169.736 157.187C167.678 156.848 166.205 155.43 166.205 153.787V152.458C166.145 149.078 166.026 148.269 165.308 148.042C164.567 147.802 163.986 148.251 163.686 148.833C163.316 149.549 162.787 150.637 162.256 151.819C161.3 153.836 160.401 155.483 160.222 155.483C159.983 155.483 159.385 155.114 158.786 154.659L158.783 154.657C157.638 153.798 157.086 153.384 156.654 153.391C156.252 153.398 155.951 153.77 155.376 154.489C154.777 155.228 154.298 156.335 154.298 156.932C154.239 157.699 153.998 158.053 153.4 158.139C151.546 158.394 150.648 159.147 150.648 160.439C150.648 161.182 149.952 161.814 149.012 161.926L145.861 162.3C143.227 162.612 140.954 162.868 140.775 162.868C140.594 162.868 140.475 159.303 140.475 154.944C140.415 148.24 140.296 146.991 139.578 146.764C139.099 146.607 138.56 146.522 138.381 146.564C138.202 146.607 137.244 147.204 136.287 147.885L136.162 147.974C135.098 148.722 134.492 149.787 134.492 150.905V160.389C134.492 161.385 132.845 161.782 132.125 160.961C131.845 160.642 131.33 160.485 130.999 160.772C129.823 161.789 128.928 164.75 128.674 164.75C128.436 164.75 127.908 161.646 127.669 158.423C127.49 155.213 127.011 149.192 126.651 145.045L126.334 141.037C126.161 138.855 124.532 136.904 122.044 135.899C121.925 135.851 121.85 135.754 121.85 135.649Z" fill="#A1A1AA"/>
<rect x="113.453" y="125.703" width="15.3125" height="7.65625" fill="#A1A1AA"/>
<rect x="-9.04688" y="-107.812" width="251.125" height="470.094" fill="url(#paint0_radial_17_57)"/>
<path fill-rule="evenodd" clip-rule="evenodd" d="M229 89.911C229 87.513 229.001 85.1147 228.986 82.7165C228.974 80.6963 228.951 78.6765 228.896 76.6573C228.777 72.2562 228.518 67.8173 227.735 63.4653C226.941 59.0505 225.645 54.9416 223.602 50.9303C221.594 46.9876 218.971 43.3798 215.841 40.252C212.711 37.1242 209.103 34.5027 205.159 32.4957C201.143 30.4524 197.03 29.1565 192.61 28.363C188.258 27.5815 183.818 27.3224 179.416 27.2035C177.396 27.1488 175.375 27.1258 173.354 27.1133C170.954 27.0985 168.555 27.0998 166.155 27.0998L138.295 27H117.458L90.0909 27.0998C87.6868 27.0998 85.2827 27.0985 82.8786 27.1133C80.8532 27.1258 78.8288 27.1488 76.8042 27.2035C72.3928 27.3224 67.9427 27.5817 63.5799 28.3642C59.1543 29.1575 55.0349 30.4529 51.014 32.4947C47.0616 34.5019 43.445 37.1237 40.3091 40.252C37.1737 43.3796 34.5455 46.9867 32.5336 50.9286C30.4852 54.9418 29.1864 59.0532 28.3907 63.4704C27.6072 67.8208 27.3476 72.2581 27.2282 76.6573C27.1738 78.6768 27.1503 80.6965 27.138 82.7165C27.1233 85.115 27 88.0942 27 90.4925L27.0007 117.48L27 138.541L27.1245 166.102C27.1245 168.504 27.1236 170.905 27.138 173.307C27.1503 175.329 27.1738 177.352 27.2285 179.374C27.3476 183.781 27.6077 188.226 28.3919 192.584C29.1874 197.005 30.4859 201.119 32.5327 205.136C34.5448 209.084 37.1735 212.697 40.3091 215.829C43.4447 218.961 47.0604 221.586 51.0121 223.596C55.0354 225.642 59.1567 226.94 63.585 227.734C67.9459 228.517 72.3945 228.776 76.8042 228.895C78.8288 228.95 80.8534 228.973 82.8788 228.986C85.2829 229 87.6868 228.999 90.0909 228.999L117.705 229H138.594L166.155 228.999C168.555 228.999 170.954 229 173.354 228.986C175.375 228.973 177.396 228.95 179.416 228.895C183.819 228.776 188.261 228.516 192.615 227.733C197.032 226.939 201.144 225.642 205.157 223.597C209.102 221.587 212.711 218.962 215.841 215.829C218.97 212.697 221.593 209.085 223.601 205.138C225.645 201.119 226.942 197.002 227.736 192.579C228.518 188.223 228.777 183.779 228.896 179.374C228.951 177.352 228.974 175.329 228.986 173.307C229.001 170.905 229 168.504 229 166.102C229 166.102 228.999 139.027 228.999 138.541V117.458C228.999 117.099 229 89.911 229 89.911Z" stroke="#52525B" stroke-width="6"/>
</g>
<g filter="url(#filter1_d_17_57)">
<path d="M119.787 53.8723H100.994V226H119.787V53.8723Z" fill="#0EA5E9"/>
<path fill-rule="evenodd" clip-rule="evenodd" d="M114.865 58.7942H105.916V226H114.865V58.7942ZM119.787 226H100.994V53.8723H119.787V226Z" fill="#1089C0"/>
<path d="M143.832 38.1757L114.3 76.7935C112.33 79.3696 108.451 79.3696 106.481 76.7935L76.9496 38.1757C76.2932 37.3173 75.9375 36.2666 75.9375 35.1859V17.9219C75.9375 15.2036 78.1411 13 80.8594 13H139.922C142.64 13 144.844 15.2036 144.844 17.9219V35.1859C144.844 36.2666 144.488 37.3173 143.832 38.1757Z" fill="#0EA5E9"/>
<path fill-rule="evenodd" clip-rule="evenodd" d="M110.391 73.8037L139.922 35.1859V17.9219L80.8594 17.9219L80.8594 35.1859L110.391 73.8037ZM114.3 76.7935L143.832 38.1757C144.488 37.3173 144.844 36.2666 144.844 35.1859V17.9219C144.844 15.2036 142.64 13 139.922 13H80.8594C78.1411 13 75.9375 15.2036 75.9375 17.9219V35.1859C75.9375 36.2666 76.2932 37.3173 76.9496 38.1757L106.481 76.7935C108.451 79.3696 112.33 79.3696 114.3 76.7935Z" fill="#1089C0"/>
</g>
</g>
<defs>
<filter id="filter0_d_17_57" x="18" y="21" width="220" height="220" filterUnits="userSpaceOnUse" color-interpolation-filters="sRGB">
<feFlood flood-opacity="0" result="BackgroundImageFix"/>
<feColorMatrix in="SourceAlpha" type="matrix" values="0 0 0 0 0 0 0 0 0 0 0 0 0 0 0 0 0 0 127 0" result="hardAlpha"/>
<feOffset dy="3"/>
<feGaussianBlur stdDeviation="3.5"/>
<feComposite in2="hardAlpha" operator="out"/>
<feColorMatrix type="matrix" values="0 0 0 0 0 0 0 0 0 0 0 0 0 0 0 0 0 0 0.32 0"/>
<feBlend mode="normal" in2="BackgroundImageFix" result="effect1_dropShadow_17_57"/>
<feBlend mode="normal" in="SourceGraphic" in2="effect1_dropShadow_17_57" result="shape"/>
</filter>
<filter id="filter1_d_17_57" x="36.5625" y="-6.6875" width="147.656" height="291.75" filterUnits="userSpaceOnUse" color-interpolation-filters="sRGB">
<feFlood flood-opacity="0" result="BackgroundImageFix"/>
<feColorMatrix in="SourceAlpha" type="matrix" values="0 0 0 0 0 0 0 0 0 0 0 0 0 0 0 0 0 0 127 0" result="hardAlpha"/>
<feOffset dy="19.6875"/>
<feGaussianBlur stdDeviation="19.6875"/>
<feComposite in2="hardAlpha" operator="out"/>
<feColorMatrix type="matrix" values="0 0 0 0 0 0 0 0 0 0 0 0 0 0 0 0 0 0 0.25 0"/>
<feBlend mode="normal" in2="BackgroundImageFix" result="effect1_dropShadow_17_57"/>
<feBlend mode="normal" in="SourceGraphic" in2="effect1_dropShadow_17_57" result="shape"/>
</filter>
<radialGradient id="paint0_radial_17_57" cx="0" cy="0" r="1" gradientUnits="userSpaceOnUse" gradientTransform="translate(116.516 127.234) rotate(90) scale(235.047 125.563)">
<stop stop-opacity="0"/>
<stop offset="1" stop-opacity="0.87"/>
</radialGradient>
<clipPath id="clip0_17_57">
<rect width="256" height="256" fill="white"/>
</clipPath>
</defs>
</svg>
